<svg xmlns="http://www.w3.org/2000/svg" xmlns:xlink="http://www.w3.org/1999/xlink" viewBox="0 0 318.613 96.973" height="75" width="244" xmlns:v="https://vecta.io/nano"><defs><clipPath id="A"><path d="M0 0h2389.58v727H0z"/></clipPath><clipPath id="B"><path d="M0 0v727h2390V0z"/></clipPath><clipPath id="C"><path d="M141.418 705.633l16.836-34.461c22.867 11.566 47.965 17.976 74.277 17.976 55.289 0 105.215-28.253 140.364-73.429l35.394 18.008c-42.66 57.253-105.633 93.527-175.758 93.527-32.316 0-63.109-7.727-91.113-21.621"/></clipPath><clipPath id="D"><path d="M141.383 727.238h266.863V615.707H141.383z"/></clipPath><radialGradient id="E" spreadMethod="pad" gradientTransform="matrix(116.986,0,0,116.986,275.214,685.871)" r="1" cy="0" cx="0" fy="0" fx="0" xlink:href="#AF"><stop offset="0" stop-color="#fff"/><stop offset="1" stop-color="#b2b7c4"/></radialGradient><clipPath id="F"><path d="M120.176 681.535c-22.371 0-58.008-38.199-84.348-92.258-29.422-60.382-36.129-117.683-14.969-128 21.156-10.324 62.184 30.262 91.625 90.641 29.418 60.402 36.102 117.703 14.946 128.02-2.196 1.066-4.59 1.597-7.184 1.597h-.07"/></clipPath><clipPath id="G"><path d="M28.297 740.191l211.117-102.894-119.383-244.945L-91.09 495.23z"/></clipPath><radialGradient id="H" spreadMethod="pad" gradientTransform="matrix(38.3216,-18.6759,53.2885,109.335,74.1305,570.644)" r="1" cy="0" cx="0" fy="0" fx="0" xlink:href="#AF"><stop offset="0" stop-color="#fff"/><stop offset="1" stop-color="#b2b7c4"/></radialGradient><clipPath id="I"><path d="M372.895 615.719c32.324-41.539 52.175-97.395 52.175-158.739 0-128.007-86.328-232.14-192.453-232.214v-38.047l.016-.043c128.176.019 232.433 121.269 232.433 270.304 0 67.516-21.425 129.344-56.777 176.747z"/></clipPath><clipPath id="J"><path d="M235.328 161.73l-50.844 466.836 277.836 30.25 50.832-466.839z"/></clipPath><linearGradient id="K" spreadMethod="pad" y2="622.285" x2="325.733" y1="216.299" x1="369.944" xlink:href="#AF"><stop offset="0" stop-color="#828d95"/><stop offset=".798" stop-color="#b2b7c4"/></linearGradient><clipPath id="L"><path d="M15.102 361.18c33.344-101.91 118.222-174.504 217.429-174.504h.086v38.09h-.086c-81.894 0-151.988 61.964-179.758 149.062z"/></clipPath><clipPath id="M"><path d="M147.578 80.527L-76.289 259.758l176.277 220.18 223.867-179.223z"/></clipPath><linearGradient id="N" spreadMethod="pad" y2="348.778" x2="38.167" y1="205.898" x1="216.633" xlink:href="#AF"><stop offset="0" stop-color="#828d95"/><stop offset=".727" stop-color="#b2b7c4"/></linearGradient><clipPath id="O"><path d="M0 0v727h2390V0z"/></clipPath><clipPath id="P"><path d="M350.066 630.094c41.832-41.192 68.582-103.836 68.582-173.91 0-19.485-2.07-38.414-5.98-56.485l37.668-8.16c4.539 20.695 6.961 42.359 6.961 64.645 0 81.55-32.289 154.453-82.77 202.41z"/></clipPath><clipPath id="Q"><path d="M353.457 373.469l-48.898 277.328 149.66 26.387 48.898-277.321z"/></clipPath><linearGradient id="R" spreadMethod="pad" y2="744.337" x2="365.221" y1="231.732" x1="455.607" xlink:href="#AF"><stop offset="0" stop-color="#878e97"/><stop offset=".798" stop-color="#c6c5cd"/><stop offset="1" stop-color="#dfdfe7"/></linearGradient><clipPath id="S"><path d="M232.531 231.758c-12.605 0-24.902 1.515-36.808 4.41l-10.461-35.41c15.23-3.82 31.054-5.844 47.269-5.844 104.742 0 192.996 83.731 217.805 196.625l-37.668 8.16c-20.828-96.496-93.699-167.941-180.137-167.941"/></clipPath><clipPath id="T"><path d="M193.105 149.477l-43.007 243.941 292.101 51.504 43.016-243.934z"/></clipPath><linearGradient id="U" spreadMethod="pad" y2="721.911" x2="242.766" y1="209.506" x1="333.118" xlink:href="#AF"><stop offset="0" stop-color="#878e97"/><stop offset=".798" stop-color="#c6c5cd"/><stop offset="1" stop-color="#dedde6"/></linearGradient><clipPath id="V"><path d="M54.551 296.813c31.937-48.063 77.894-82.883 130.711-96.055l10.461 35.41c-44.364 10.781-83.082 40.652-109.957 82.184z"/></clipPath><clipPath id="W"><path d="M58.965 176.621L34.602 314.805l157.019 27.675 24.363-138.183z"/></clipPath><linearGradient id="X" spreadMethod="pad" y2="688.648" x2="49.631" y1="175.933" x1="140.036" xlink:href="#AF"><stop offset="0" stop-color="#878e97"/><stop offset=".798" stop-color="#c6c5cd"/><stop offset="1" stop-color="#dedde6"/></linearGradient><clipPath id="Y"><path d="M350.258 630.516c41.914-41.262 68.719-104.059 68.719-174.254 0-19.535-2.067-38.52-5.981-56.625l33.438-8.16c4.554 20.73 8.476 42.421 8.476 64.785 0 86.207-29.551 154.758-80.152 202.801z"/></clipPath><clipPath id="Z"><path d="M357.32 365.367l-73.906 275.824 164.535 44.09 73.91-275.824z"/></clipPath><linearGradient id="a" spreadMethod="pad" y2="637.111" x2="372.683" y1="407.48" x1="434.213" xlink:href="#AF"><stop offset="0" stop-color="#78838e"/><stop offset=".02" stop-color="#78838e"/><stop offset=".639" stop-color="#828d95"/><stop offset=".98" stop-color="#bcc0cb"/></linearGradient><clipPath id="b"><path d="M232.484 231.344c-12.636 0-24.961 1.527-36.89 4.437l-10.5-35.484c15.285-3.817 31.136-5.867 47.39-5.867 104.985 0 189.071 83.89 213.95 197.047l-33.438 8.16c-20.855-96.703-93.879-168.293-180.512-168.293"/></clipPath><clipPath id="c"><path d="M185.082 399.609H446.41V194.402H185.082z"/></clipPath><radialGradient id="d" spreadMethod="pad" gradientTransform="matrix(117.474,0,0,117.474,315.746,297.007)" r="1" cy="0" cx="0" fy="0" fx="0" xlink:href="#AF"><stop offset="0" stop-color="#dedde6"/><stop offset=".449" stop-color="#fff"/><stop offset=".8" stop-color="#78838e"/></radialGradient><clipPath id="e"><path d="M54.129 296.535c31.984-48.121 78.051-83.027 130.965-96.238l10.5 35.484c-44.461 10.785-83.254 40.727-110.188 82.328z"/></clipPath><clipPath id="f"><path d="M145.191 132.535L-2.301 242.254l106.824 143.598L252.02 276.129z"/></clipPath><linearGradient id="g" spreadMethod="pad" y2="297.344" x2="73.571" y1="218.497" x1="179.562" xlink:href="#AF"><stop offset="0" stop-color="#78838e"/><stop offset=".995" stop-color="#b2b7c4"/></linearGradient><clipPath id="h"><path d="M31.383 216.34h402.289v480.355H31.383z"/></clipPath><clipPath id="i"><path d="M0 0v727h2390V0z"/></clipPath><clipPath id="j"><path d="M47.543 456.98c0-124.179 82.988-225.16 184.988-225.16s184.985 100.981 184.985 225.16c0 124.129-82.985 225.125-184.985 225.125S47.543 581.109 47.543 456.98"/></clipPath><clipPath id="k"><path d="M417.586 682.063v-450.27H47.609v450.27z"/></clipPath><linearGradient id="l" spreadMethod="pad" y2="341.844" x2="232.597" y1="679.752" x1="232.597" xlink:href="#AF"><stop offset="0" stop-color="#fff"/><stop offset=".322" stop-color="#f37b97"/><stop offset=".699" stop-color="#e41543"/><stop offset="1" stop-color="#cc193e"/></linearGradient><clipPath id="m"><path d="M391.957 484.906c0-123.097-78.937-223.246-175.992-223.246-46.863 0-91.149 23.371-123.481 61.348l-5.375-2.067c33.95-52.882 88.149-87.054 146.973-87.054 100.234 0 181.785 99.265 181.785 221.297 0 64.093-19.695 121.906-55.609 162.351 21.672-37.109 31.699-82.984 31.699-132.629"/></clipPath><clipPath id="n"><path d="M-94.398 363.793l292.75 409.387 399.043-285.36L304.633 78.434z"/></clipPath><linearGradient id="o" spreadMethod="pad" y2="606.603" x2="380.783" y1="266.746" x1="137.749" xlink:href="#AF"><stop offset="0" stop-color="#bc193d"/><stop offset=".164" stop-color="#bc193d"/><stop offset=".366" stop-color="#a81837"/><stop offset=".798" stop-color="#ca1a36"/><stop offset="1" stop-color="#eea6c2"/></linearGradient><clipPath id="p"><path d="M317.281 639.105c3.324-40.335-26.816-115.402-82.922-189.55-52.296-69.157-111.254-118.059-151.402-129.496 12.313-18.383 27.356-33.184 43.563-48.407 48.386 0 118.246 48.371 173.562 124.883 54.656 75.617 78.797 156.074 64.734 202.313 0 0-15.222 23.933-41.722 42.687 0 0-2.196 1.863-3.895 1.863-1.222 0-2.187-.972-1.918-4.293"/></clipPath><clipPath id="q"><path d="M557.773 508L271.18 129.184-95.887 406.898l286.598 378.809z"/></clipPath><linearGradient id="r" spreadMethod="pad" y2="306.771" x2="116.944" y1="616.599" x1="351.358" xlink:href="#AF"><stop offset="0" stop-color="#eb4870"/><stop offset=".344" stop-color="#ce1940"/><stop offset=".628" stop-color="#b41939"/><stop offset="1" stop-color="#b8183e"/></linearGradient><clipPath id="s"><path d="M45.602 456.98c0-125.484 83.836-227.531 186.929-227.531 103.067 0 186.93 102.047 186.93 227.531 0 125.442-83.863 227.469-186.93 227.469-103.093 0-186.929-102.027-186.929-227.469m4.809 0c0 122.344 81.707 221.903 182.121 221.903 100.43 0 182.086-99.559 182.086-221.903 0-122.39-81.656-221.953-182.086-221.953-100.414 0-182.121 99.563-182.121 221.953"/></clipPath><clipPath id="t"><path d="M419.426 684.578V229.574H45.566v455.004z"/></clipPath><linearGradient id="u" spreadMethod="pad" y2="235.842" x2="232.496" y1="678.526" x1="232.496" xlink:href="#AF"><stop offset="0" stop-color="#f5c9db"/><stop offset=".503" stop-color="#ac1f45"/><stop offset="1" stop-color="#7a1630"/></linearGradient><clipPath id="v"><path d="M38.633 456.98c0-128.816 86.988-233.578 193.898-233.578S426.426 328.164 426.426 456.98c0 128.75-86.981 233.543-193.895 233.543S38.633 585.73 38.633 456.98m6.969 0c0 125.442 83.836 227.469 186.929 227.469 103.067 0 186.93-102.027 186.93-227.469 0-125.484-83.863-227.531-186.93-227.531-103.093 0-186.929 102.047-186.929 227.531"/></clipPath><clipPath id="w"><path d="M38.555 223.508v467.113h387.793V223.508z"/></clipPath><linearGradient id="x" spreadMethod="pad" y2="694.758" x2="232.449" y1="224.198" x1="232.449" xlink:href="#AF"><stop offset="0" stop-color="#424f56"/><stop offset=".727" stop-color="#b2b7c4"/></linearGradient><clipPath id="y"><path d="M0 0v727h2390V0z"/></clipPath><clipPath id="z"><path d="M326.289 584.242l-14.476-13.472-7.387 2.043c-5.004-13.458-11.375-27.875-19.055-42.836 25.195-8.551 40.859-20.407 41.098-20.575l3.539-2.718v80.968h-.012z"/></clipPath><clipPath id="AA"><path d="M314.133 485.305l-67.516 50.222 54.684 73.496 67.512-50.226z"/></clipPath><linearGradient id="AB" spreadMethod="pad" y2="554.086" x2="298.408" y1="493.998" x1="379.172" xlink:href="#AF"><stop offset="0" stop-color="#fff"/><stop offset="1" stop-color="#fcecf3"/></linearGradient><clipPath id="AC"><path d="M234.375 449.555c-4.254-5.641-8.562-11.094-12.887-16.45h.239c36.324.758 55.875-9.179 56.589-28.742.262-7.242-1.929-13.281-6.515-17.855-11.207-11.238-34.449-12.164-47.309-11.762-18.644.656-34.359 4.477-47.25 9.543-17.062-16.633-33.851-30.641-49.594-41.469v-16.922l20.997 18.54c6.027-4.333 30.199-19.141 80.179-19.141 2.18 0 4.559.019 7.086.117 22.156 19.402 44.125 43.375 64.195 71.121 12 16.617 22.536 33.485 31.536 50.141-19.512 26.121-58.391 32.629-75.094 34.25-6.852-10.41-14.258-20.895-22.172-31.371"/></clipPath><clipPath id="AD"><path d="M258.941 227.613L53.106 380.75l147.207 197.859 205.835-153.136z"/></clipPath><linearGradient id="AE" spreadMethod="pad" y2="423.94" x2="201.631" y1="363.857" x1="282.387" xlink:href="#AF"><stop offset="0" stop-color="#fff"/><stop offset="1" stop-color="#fcecf3"/></linearGradient><linearGradient id="AF" gradientUnits="userSpaceOnUse"/></defs><g transform="matrix(.133333 0 0 -.133333 0 96.973333)"><g clip-path="url(#A)"><g fill="#211c1d"><path d="M192.582 116.43h51.031c14.395 0 25.672-4.254 33.028-11.45a34.56 34.56 0 0 0 9.488-24.679v-.324c0-18.805-11.281-30.098-27.309-34.664l30.907-43.336h-23.723l-28.121 39.895h-25.188V1.977h-20.113zm49.555-56.739c14.39 0 23.551 7.527 23.551 19.133v.324c0 12.277-8.833 18.973-23.708 18.973h-29.285v-38.43zm-224.156-.809v.328c0 32.215 24.859 59.195 60.004 59.195s59.68-26.656 59.68-58.883v-.328C137.664 26.981 112.805 0 77.66 0S17.98 26.668 17.98 58.883m98.594 0v.328c0 22.242-16.187 40.719-38.914 40.719S39.07 81.766 39.07 59.535v-.324c0-22.246 16.188-40.723 38.914-40.723s38.59 18.16 38.59 40.395M1958.44 96.816l-20.61-5.731-4.25 16.355 30.75 9.813h14.05V1.977h-19.94zm-238.21 19.614h84.87V98.449h-64.74V68.684h57.39v-17.98h-57.39V19.969h65.56V1.977h-85.69zM1565.1 58.883v.328c0 32.539 24.35 59.195 59.02 59.195 21.1 0 33.85-7.367 44.79-17.836L1656 85.691c-9.16 8.508-18.96 14.238-32.06 14.238-21.89 0-37.76-18.004-37.76-40.394v-.324c0-22.418 15.87-40.723 37.76-40.723 14.07 0 23.07 5.73 32.88 14.879l12.92-13.086C1657.79 7.852 1644.72 0 1623.31 0c-33.36 0-58.21 26-58.21 58.883m-150.58 57.547h18.64l61.3-79.153v79.153h19.79V1.977h-16.83l-63.12 81.426V1.977h-19.78zm-81.59 0h20.11V1.977h-20.11zm-144.36-97.785l12.1 14.395c10.95-9.473 21.9-14.879 36.14-14.879 12.42 0 20.27 5.719 20.27 14.395v.328c0 8.176-4.58 12.586-25.84 17.496-24.35 5.887-38.09 13.082-38.09 34.16v.328c0 19.629 16.35 33.199 39.08 33.199a63.5 63.5 0 0 0 41.53-14.394l-10.79-15.203c-10.31 7.68-20.61 11.773-31.08 11.773-11.78 0-18.63-6.058-18.63-13.582v-.312c0-8.832 5.23-12.746 27.15-17.981 24.19-5.898 36.79-14.551 36.79-33.535v-.328c0-21.406-16.85-34.164-40.89-34.164a70.49 70.49 0 0 0-47.74 18.32m-207.961 97.77h20.111V20.293h60.18V1.977h-80.291zm-117.871.824h18.649L931.734 1.977h-21.25L898.879 29.61h-54.133L832.973 1.977h-20.598zm28.789-69.82L871.73 93.231l-19.628-45.797zM666.219 116.43h18.633l61.316-79.153v79.153h19.781V1.977h-16.84l-63.105 81.426V1.977h-19.785zm-80.606 0h20.114V1.977h-20.114zM418.531 58.883v.328c0 32.031 24.524 59.195 59.016 59.195 19.953 0 32.226-5.574 43.992-15.547l-12.758-15.203c-8.82 7.523-17.496 12.273-32.035 12.273-21.105 0-37.121-18.488-37.121-40.394v-.324c0-23.555 15.531-40.879 38.914-40.879a46.8 46.8 0 0 1 27.625 8.66v21.422h-29.258v17.492h48.766V17.832A72.93 72.93 0 0 0 477.938.012c-35.813 0-59.352 25.516-59.352 58.883m-73.957 57.536h20.113V1.977h-20.113V116.43M2154.31 17.508l12.42 14.551c9.16-8.492 18.8-13.738 29.44-13.738 13.72 0 22.71 7.852 22.71 19.797v.324c0 11.609-9.8 18.961-23.71 18.961a48.69 48.69 0 0 1-21.08-5.078l-12.11 8.023 3.23 56.093h68.33V98.606h-51.03l-1.79-26.809c5.78 2.238 11.94 3.348 18.14 3.269 22.25 0 39.73-11.777 39.73-35.969v-.328c0-23.383-17.01-38.758-42.36-38.758-17.49 0-31.22 7.027-42 17.496m-126.4 15.543v.316c0 13.895 7.68 22.57 20.6 27.961-9.65 5.063-16.67 12.758-16.67 25.516v.313c0 17.508 16.84 30.91 39.72 30.91 22.89 0 39.74-13.257 39.74-30.91v-.312c0-12.758-7.03-20.453-16.68-25.516 12.43-5.719 20.61-13.894 20.61-27.476v-.328c0-20.437-18.65-33.184-43.67-33.184s-43.65 13.086-43.65 32.711m67.62 1.309v.328c0 10.469-10.46 17.324-24.03 17.324s-23.97-6.855-23.97-17.324v-.328c0-9.328 9-17.168 24.03-17.168 15.04 0 24.04 7.684 24.04 17.168m-3.66 50.523v.328c0 8.816-8.18 16.012-20.44 16.012s-20.44-7.196-20.44-15.844v-.34c0-9.973 8.66-17.012 20.44-17.012 11.77 0 20.44 7.039 20.44 16.856m275.97-60.504h21.75V1.977h-21.75zm-63.11 72.438l-20.61-5.731-4.25 16.355 30.74 9.813h14.06V1.977h-19.94v94.84"/></g><g fill="#eb134c"><path d="M2334.81 317.848l-21.66 15.703-48.64 76.047c22.09 7.601 50.79 25.699 50.79 68.461 0 78.406-70.37 82.879-70.37 82.879H2083.6l18.41-19.051V334.676l-11.9-16.828h81.13l-11.88 19.05v67.204h44.03l46.92-71.692-9.73-14.562zm-102.9 131.031h-73.57v64.969h70.34s30.26 2.25 31.41-31.34-28.14-33.629-28.14-33.629m-368.06-86.242v56.015h93.1l18.37-16.789v79.504l-17.34-17.898h-94.13v52.629h109.32l19.49-20.153v64.953h-195.94l13-13.437V334.66l-16.24-17.926h208.91v67.204l-20.57-21.301h-117.97zm-213.27 60.519v-32.492s-8.65-33.613-50.88-33.613c-42.22 0-77.94 20.187-77.94 87.394s53.06 81.739 74.69 81.739c55.2 0 87.66-36.965 87.66-36.965v73.929l-11.9-12.324s-31.41 17.914-71.43 17.914c-40.03 0-128.85-12.312-128.85-129.922s107.19-125.457 125.62-125.457c76.87 0 101.76 47.106 101.76 47.106v60.426l16.22 20.164h-81.2zm-256.78 139.992h-84.38l17.28-14.562V417.527l-112.61 145.621h-75.75l9.73-10.058V342.484l-21.65-19.035h87.67l-12.98 16.813v148.957l118.03-165.77h70.34l-11.89 15.688v208.324l16.21 15.687zm-372.37-15.687l15.15 19.039h-84.432l14.089-16.812V342.484l-19.507-17.898h90.94l-16.24 19.012zm-245.736-73.902s-62.804-4.528-62.804 31.336c0 34.726 44.383 31.406 48.687 31.406 54.133 0 92.028-30.266 92.028-30.266v72.805l-15.153-14.567s-51.972 15.704-81.129 15.704-102.832-14.551-102.832-84.004 86.598-67.192 93.074-67.192 58.344 3.352 59.547-31.402c1.086-31.406-37.945-33.078-55.218-32.477-63.856 2.25-93.071 42.578-93.071 42.578v-85.16l18.317 16.817s22.742-20.176 79.019-20.176 110.426 21.301 110.426 83.992c0 69.465-90.93 70.656-90.93 70.656m1568.595 68.879h2.13c2.92 0 4.36-.914 4.36-3.074s-1.31-2.93-4.11-2.93h-2.38zm-4.88 3.196v-20.676h4.88v8.492h2.38l3.82-8.492h5.4l-4.46 9.25c2.6.543 4.43 2.859 4.37 5.508 0 3.925-2.84 5.957-8.54 5.957zm7.49 4.879c4.1.035 8.01-1.661 10.79-4.672a15.71 15.71 0 0 0 4.26-11.2c0-8.367-6.72-15.183-15.08-15.308a14.75 14.75 0 0 0-10.68 4.707 15.49 15.49 0 0 0-4.33 10.902c.02 4.172 1.66 8.172 4.58 11.16 2.72 2.868 6.51 4.465 10.46 4.411m-.07 3.101c-6.39.047-12.28-3.41-15.35-9.004-1.72-2.945-2.63-6.297-2.62-9.707a18.81 18.81 0 0 1 5.23-13.008 17.55 17.55 0 0 1 12.81-5.64c4.82.035 9.42 2 12.76 5.457a18.34 18.34 0 0 1 5.32 13.191c.05 4.86-1.79 9.551-5.12 13.082-3.35 3.602-8.04 5.637-12.96 5.613"/></g><path d="M40.012 456.965c0 96.301 48.848 179.078 118.246 214.199l-16.844 34.469C58.348 664.344 0 568.43 0 456.965c0-33.703 5.359-66 15.102-95.785l37.664 12.648c-8.238 25.836-12.754 53.863-12.754 83.137" fill="#b2b7c4"/></g><g clip-path="url(#B)"><g clip-path="url(#C)"><g clip-path="url(#D)"><path d="M372 615v1h-1v1h-1v2h-1v1h-1v1h-1v1h-1v1h-1v1h-1v2h-1v1h-1v1h-1v1h-1v1h-1v1h-1v1h-1v1h-1v1h-1v1h-1v1h-1v1h-1v1h-1v1h-1v1h-1v1h-1v1h-1v1h-1v1h-1v1h-1v1h-2v1h-1v1h-1v1h-1v1h-2v1h-1v1h-1v1h-2v1h-1v1h-1v1h-2v1h-1v1h-1v1h-2v1h-1v1h-2v1h-2v1h-1v1h-2v1h-2v1h-1v1h-2v1h-2v1h-2v1h-2v1h-2v1h-2v1h-2v1h-2v1h-3v1h-2v1h-2v1h-3v1h-3v1h-3v1h-3v1h-3v1h-4v1h-5v1h-5v1h-5v1h-7v1h-16v1h-3v-1h-17v-1h-6v-1h-5v-1h-6v-1h-4v-1h-3v-1h-4v-1h-3v-1h-3v-1h-3v-1h-3v-1h-2v-1h-2v-1h-3v-1h-2v-1h-2v-1h-2v-1h-4v2h-1v2h-1v2h-1v2h-1v2h-1v2h-1v3h-1v2h-1v2h-1v2h-1v2h-1v2h-1v2h-1v2h-1v2h-1v2h-1v2h1v1h2v1h2v1h3v1h2v1h2v1h3v1h2v1h2v1h3v1h3v1h3v1h4v1h3v1h3v1h4v1h4v1h5v1h6v1h5v1h8v1h41v-1h10v-1h5v-1h5v-1h5v-1h5v-1h4v-1h3v-1h3v-1h3v-1h3v-1h3v-1h3v-1h3v-1h3v-1h2v-1h2v-1h2v-1h2v-1h2v-1h3v-1h2v-1h2v-1h2v-1h2v-1h2v-1h1v-1h2v-1h2v-1h1v-1h2v-1h1v-1h2v-1h2v-1h1v-1h2v-1h1v-1h2v-1h2v-1h1v-1h1v-1h1v-1h2v-1h1v-1h1v-1h1v-1h2v-1h1v-1h1v-1h1v-1h2v-1h1v-1h1v-1h2v-1h1v-1h1v-1h1v-1h1v-1h1v-1h1v-1h1v-1h1v-1h1v-1h1v-1h1v-1h1v-1h1v-1h1v-1h1v-1h1v-1h1v-1h1v-1h1v-1h1v-1h1v-2h1v-1h1v-1h1v-1h1v-1h1v-2h1v-1h1v-1h1v-1h1v-1h1v-2h1v-1h1v-1h1v-1h1v-1h1v-2h-2v-1h-2v-1h-2v-1h-2v-1h-2v-1h-1v-1h-2v-1h-2v-1h-2v-1h-2v-1h-2v-1h-2v-1h-2v-1h-2v-1h-2v-1h-2v-1h-2v-1h-2v-1" fill="url(#E)"/></g></g></g><g clip-path="url(#F)"><g clip-path="url(#G)"><path d="M28 459v1h-6v1h-2v1h-2v1h-1v1h-1v1h-1v1h-1v1h-1v3h-1v2h-1v3h-1v3H9v8H8v14h1v11h1v5h1v6h1v5h1v4h1v3h1v4h1v4h1v3h1v3h1v3h1v3h1v3h1v2h1v3h1v3h1v3h1v2h1v2h1v2h1v3h1v2h1v2h1v2h1v3h1v2h1v2h1v2h1v2h1v2h1v2h1v2h1v1h1v2h1v2h1v2h1v2h1v2h1v1h1v2h1v2h1v1h1v2h1v2h1v1h1v2h1v1h1v2h1v1h1v2h1v1h1v2h1v1h1v1h1v2h1v1h1v2h1v1h1v1h1v2h1v1h1v1h1v1h1v1h1v2h1v1h1v1h1v1h1v1h1v2h1v1h1v1h1v1h1v1h1v1h1v1h1v1h1v1h1v1h1v1h1v1h2v1h1v1h1v1h2v1h1v1h1v1h2v1h1v1h1v1h2v1h2v1h2v1h2v1h3v1h5v1h8v-1h3v-1h1v-1h1v-1h1v-1h1v-1h1v-1h2v-3h1v-2h1v-3h1v-2h1v-7h1v-22h-1v-7h-1v-6h-1v-6h-1v-4h-1v-4h-1v-3h-1v-4h-1v-4h-1v-3h-1v-3h-1v-3h-1v-2h-1v-3h-1v-3h-1v-3h-1v-3h-1v-2h-1v-2h-1v-3h-1v-2h-1v-2h-1v-2h-1v-3h-1v-2h-1v-2h-1v-2h-1v-2h-1v-2h-1v-2h-1v-2h-1v-2h-1v-2h-1v-2h-1v-2h-1v-2h-1v-1h-1v-2h-1v-2h-1v-2h-1v-1h-1v-2h-1v-2h-1v-1h-1v-2h-1v-1h-1v-2h-1v-1h-1v-2h-1v-2h-1v-1h-1v-2h-1v-1h-1v-1h-1v-2h-1v-1h-1v-1h-1v-2h-1v-1h-1v-1h-1v-2h-1v-1h-1v-1h-1v-2h-1v-1h-1v-1h-1v-1h-1v-1h-1v-1h-1v-1h-1v-1h-1v-2h-1v-1h-1v-1h-1v-1h-1v-1h-1v-1h-1v-1h-1v-1h-1v-1h-2v-1h-1v-1h-1v-1h-1v-1h-1v-1h-1v-1h-2v-1h-1v-1h-2v-1h-1v-1h-2v-1h-2v-1h-1v-1h-2v-1h-3v-1h-3v-1h-4v-1" fill="url(#H)"/></g></g><g clip-path="url(#I)"><g clip-path="url(#J)"><path d="M232 186v39h4v1h16v1h5v1h6v1h5v1h4v1h4v1h3v1h3v1h3v1h3v1h3v1h2v1h2v1h3v1h2v1h2v1h3v1h2v1h2v1h1v1h2v1h2v1h1v1h2v1h2v1h2v1h1v1h2v1h1v1h2v1h1v1h1v1h2v1h1v1h1v1h2v1h1v1h2v1h1v1h1v1h1v1h1v1h2v1h1v1h1v1h1v1h1v1h1v1h1v1h1v1h1v1h1v1h2v2h1v1h1v1h1v1h1v1h1v1h1v1h1v1h1v1h1v1h1v1h1v2h1v1h1v1h1v1h1v2h1v1h1v1h1v2h1v1h1v1h1v1h1v2h1v1h1v1h1v2h1v1h1v2h1v2h1v1h1v2h1v1h1v2h1v2h1v1h1v2h1v2h1v1h1v2h1v2h1v2h1v2h1v2h1v2h1v2h1v2h1v2h1v3h1v2h1v3h1v2h1v3h1v2h1v3h1v2h1v4h1v3h1v3h1v4h1v3h1v3h1v4h1v5h1v5h1v4h1v5h1v7h1v8h1v8h1v23h1v2h-1v22h-1v9h-1v8h-1v7h-1v4h-1v5h-1v5h-1v5h-1v3h-1v4h-1v3h-1v4h-1v3h-1v4h-1v2h-1v3h-1v2h-1v3h-1v3h-1v2h-1v3h-1v2h-1v2h-1v2h-1v2h-1v3h-1v2h-1v2h-1v2h-1v2h-1v2h-1v1h-1v2h-1v2h-1v1h-1v2h-1v2h-1v2h-1v1h-1v2h-1v2h-1v1h-1v1h-1v2h-1v1h-1v2h-1v1h-1v1h-1v2h-1v1h-1v2h-1v1h-1v1h1v1h2v1h2v1h2v1h2v1h2v1h2v1h2v1h2v1h2v1h2v1h2v1h2v1h2v1h1v1h2v1h2v1h2v1h3v-1h1v-1h1v-2h1v-1h1v-2h1v-1h1v-2h1v-1h1v-2h1v-1h1v-1h1v-2h1v-1h1v-2h1v-2h1v-2h1v-1h1v-2h1v-2h1v-2h1v-1h1v-2h1v-2h1v-2h1v-2h1v-2h1v-2h1v-2h1v-2h1v-3h1v-2h1v-2h1v-2h1v-2h1v-3h1v-3h1v-2h1v-3h1v-3h1v-2h1v-3h1v-3h1v-3h1v-4h1v-3h1v-4h1v-3h1v-4h1v-4h1v-5h1v-5h1v-5h1v-5h1v-8h1v-8h1v-9h1v-24h1v-4h-1v-23h-1v-10h-1v-7h-1v-8h-1v-6h-1v-5h-1v-4h-1v-5h-1v-4h-1v-5h-1v-4h-1v-3h-1v-3h-1v-3h-1v-3h-1v-4h-1v-3h-1v-3h-1v-2h-1v-3h-1v-2h-1v-3h-1v-2h-1v-3h-1v-2h-1v-2h-1v-3h-1v-2h-1v-2h-1v-2h-1v-2h-1v-2h-1v-2h-1v-2h-1v-2h-1v-1h-1v-2h-1v-2h-1v-2h-1v-2h-1v-2h-1v-1h-1v-2h-1v-1h-1v-2h-1v-1h-1v-2h-1v-1h-1v-2h-1v-2h-1v-1h-1v-2h-1v-1h-1v-2h-1v-1h-1v-1h-1v-1h-1v-2h-1v-1h-1v-1h-1v-1h-1v-2h-1v-1h-1v-1h-1v-2h-1v-1h-1v-1h-1v-1h-1v-2h-1v-1h-1v-1h-1v-1h-1v-1h-1v-1h-1v-1h-1v-1h-1v-1h-1v-1h-1v-1h-1v-1h-1v-1h-1v-1h-1v-1h-1v-1h-1v-1h-1v-1h-1v-1h-1v-1h-1v-1h-1v-1h-1v-1h-2v-1h-1v-1h-1v-1h-1v-1h-1v-1h-1v-1h-1v-1h-2v-1h-1v-1h-1v-1h-1v-1h-2v-1h-1v-1h-2v-1h-1v-1h-1v-1h-2v-1h-1v-1h-2v-1h-1v-1h-1v-1h-2v-1h-1v-1h-2v-1h-2v-1h-1v-1h-2v-1h-2v-1h-2v-1h-2v-1h-1v-1h-2v-1h-2v-1h-2v-1h-1v-1h-3v-1h-2v-1h-2v-1h-3v-1h-2v-1h-2v-1h-3v-1h-2v-1h-2v-1h-4v-1h-3v-1h-3v-1h-4v-1h-3v-1h-3v-1h-4v-1h-6v-1h-5v-1h-6v-1h-6v-1h-17v-1" fill="url(#K)"/></g></g><g clip-path="url(#L)"><g clip-path="url(#M)"><path d="M225 186v1h-15v1h-7v1h-7v1h-5v1h-4v1h-4v1h-5v1h-3v1h-3v1h-3v1h-3v1h-3v1h-3v1h-2v1h-3v1h-2v1h-2v1h-3v1h-2v1h-2v1h-2v1h-2v1h-2v1h-2v1h-2v1h-2v1h-2v1h-2v1h-1v1h-2v1h-1v1h-2v1h-1v1h-2v1h-2v1h-1v1h-2v1h-1v1h-2v1h-1v1h-1v1h-1v1h-2v1h-1v1h-1v1h-2v1h-1v1h-1v1h-2v1h-1v1h-1v1h-1v1h-1v1h-1v1h-1v1h-2v1h-1v1h-1v1h-1v1h-1v1h-1v1h-1v1h-1v1h-1v1h-1v1h-1v1h-1v1h-1v1h-1v1h-1v1h-1v1h-1v1h-1v1h-1v1h-1v1h-1v2h-1v1h-1v1h-1v1h-1v1h-1v1h-1v2h-1v1h-1v1h-1v1h-1v1h-1v2h-1v1h-1v2h-1v1h-1v1h-1v2h-1v1h-1v2h-1v1h-1v1h-1v2h-1v1h-1v2h-1v2h-1v1h-1v2h-1v1h-1v2h-1v2h-1v1h-1v2h-1v2h-1v2h-1v1h-1v2h-1v2h-1v2h-1v2h-1v2h-1v2h-1v2h-1v2h-1v3h-1v2h-1v2h-1v2h-1v3h-1v2h-1v3h-1v2h-1v3h-1v3h-1v2h-1v3h-1v4h2v1h3v1h3v1h3v1h3v1h3v1h3v1h3v1h3v1h3v1h3v1h3v1h4v-3h1v-3h1v-3h1v-3h1v-2h1v-3h1v-2h1v-3h1v-2h1v-2h1v-3h1v-2h1v-2h1v-2h1v-2h1v-2h1v-2h1v-2h1v-1h1v-2h1v-2h1v-2h1v-1h1v-2h1v-2h1v-1h1v-2h1v-2h1v-1h1v-1h1v-2h1v-1h1v-2h1v-1h1v-2h1v-1h1v-1h1v-2h1v-1h1v-1h1v-1h1v-2h1v-1h1v-1h1v-1h1v-2h1v-1h1v-1h1v-1h1v-1h1v-1h1v-1h1v-1h1v-1h1v-1h1v-1h1v-1h1v-2h2v-1h1v-1h1v-1h1v-1h1v-1h1v-1h1v-1h1v-1h1v-1h1v-1h2v-1h1v-1h1v-1h2v-1h1v-1h1v-1h1v-1h2v-1h1v-1h1v-1h2v-1h1v-1h2v-1h1v-1h2v-1h1v-1h2v-1h1v-1h2v-1h2v-1h2v-1h2v-1h2v-1h1v-1h2v-1h2v-1h3v-1h2v-1h2v-1h3v-1h2v-1h3v-1h3v-1h3v-1h3v-1h3v-1h4v-1h4v-1h4v-1h6v-1h7v-1h14v-1h5v-39" fill="url(#N)"/></g></g><g clip-path="url(#O)"><path d="M209.605 203.074h54.719v27.066h-54.719z" fill="#888e96"/></g><g clip-path="url(#P)"><g clip-path="url(#Q)"><path d="M448 391v1h-5v1h-5v1h-4v1h-5v1h-4v1h-5v1h-5v1h-3v3h1v6h1v7h1v6h1v6h1v17h1v25h-1v15h-1v7h-1v7h-1v7h-1v5h-1v4h-1v4h-1v4h-1v4h-1v5h-1v2h-1v3h-1v3h-1v3h-1v3h-1v3h-1v3h-1v3h-1v2h-1v2h-1v2h-1v2h-1v2h-1v3h-1v2h-1v2h-1v2h-1v2h-1v2h-1v2h-1v1h-1v2h-1v2h-1v1h-1v2h-1v2h-1v2h-1v1h-1v2h-1v1h-1v2h-1v1h-1v2h-1v1h-1v1h-1v2h-1v1h-1v1h-1v2h-1v1h-1v1h-1v2h-1v1h-1v1h-1v1h-1v1h-1v2h-1v1h-1v1h-1v1h-1v1h-1v1h-1v1h-1v1h-1v1h-1v1h-1v2h-1v3h1v1h1v1h1v1h1v1h1v2h1v1h1v1h1v1h1v1h1v1h1v1h1v2h1v1h1v1h1v1h1v1h1v1h1v2h1v1h1v1h1v1h1v1h1v1h1v1h2v-1h1v-2h1v-1h1v-1h1v-1h1v-1h1v-1h1v-1h1v-1h1v-1h1v-1h1v-1h1v-1h1v-1h1v-1h1v-1h1v-1h1v-2h1v-1h1v-1h1v-2h1v-1h1v-1h1v-1h1v-2h1v-1h1v-1h1v-2h1v-1h1v-1h1v-2h1v-1h1v-1h1v-2h1v-1h1v-2h1v-2h1v-1h1v-2h1v-2h1v-1h1v-2h1v-1h1v-2h1v-2h1v-1h1v-2h1v-2h1v-2h1v-2h1v-2h1v-2h1v-2h1v-2h1v-2h1v-2h1v-3h1v-2h1v-2h1v-2h1v-3h1v-3h1v-2h1v-3h1v-3h1v-3h1v-2h1v-3h1v-3h1v-3h1v-4h1v-4h1v-4h1v-4h1v-4h1v-4h1v-6h1v-6h1v-7h1v-7h1v-9h1v-20h1v-13h-1v-18h-1v-12h-1v-7h-1v-6h-1v-6h-1v-6h-1v-4" fill="url(#R)"/></g></g><g clip-path="url(#S)"><g clip-path="url(#T)"><path d="M231 194v1h-16v1h-10v1h-5v1h-6v1h-5v1h-4v4h1v3h1v4h1v3h1v3h1v4h1v3h1v3h1v4h1v3h1v3h2v-1h6v-1h5v-1h6v-1h15v-1h8v1h14v1h6v1h7v1h4v1h3v1h4v1h4v1h3v1h2v1h3v1h3v1h3v1h2v1h2v1h2v1h2v1h2v1h2v1h2v1h2v1h2v1h1v1h2v1h2v1h1v1h2v1h2v1h1v1h2v1h1v1h1v1h2v1h1v1h2v1h1v1h1v1h2v1h1v1h1v1h1v1h1v1h1v1h1v1h2v1h1v1h1v1h1v1h1v1h1v1h1v1h1v1h1v1h1v1h1v1h1v1h1v1h1v1h1v1h1v1h1v1h1v2h1v1h1v1h1v1h1v1h1v2h1v1h1v1h1v1h1v2h1v1h1v1h1v2h1v1h1v2h1v1h1v2h1v1h1v1h1v2h1v2h1v1h1v2h1v2h1v1h1v2h1v2h1v1h1v2h1v2h1v2h1v2h1v2h1v2h1v2h1v3h1v2h1v2h1v3h1v2h1v3h1v2h1v3h1v3h1v3h1v3h1v3h1v3h1v4h1v4h1v4h1v4h1v2h4v-1h5v-1h5v-1h4v-1h5v-1h4v-1h5v-1h5v-1h2v-2h-1v-4h-1v-4h-1v-4h-1v-4h-1v-4h-1v-3h-1v-3h-1v-2h-1v-3h-1v-3h-1v-3h-1v-3h-1v-3h-1v-2h-1v-2h-1v-3h-1v-2h-1v-2h-1v-3h-1v-2h-1v-2h-1v-2h-1v-2h-1v-2h-1v-2h-1v-2h-1v-2h-1v-2h-1v-1h-1v-2h-1v-2h-1v-1h-1v-2h-1v-2h-1v-1h-1v-2h-1v-2h-1v-1h-1v-2h-1v-1h-1v-2h-1v-1h-1v-2h-1v-1h-1v-1h-1v-2h-1v-1h-1v-1h-1v-2h-1v-1h-1v-2h-1v-1h-1v-1h-1v-1h-1v-1h-1v-2h-1v-1h-1v-1h-1v-1h-1v-1h-1v-1h-1v-2h-1v-1h-1v-1h-1v-1h-1v-1h-1v-1h-1v-1h-1v-1h-1v-1h-1v-1h-1v-1h-1v-1h-1v-1h-1v-1h-1v-1h-1v-1h-1v-1h-1v-1h-1v-1h-1v-1h-2v-1h-1v-1h-1v-1h-1v-1h-1v-1h-1v-1h-2v-1h-1v-1h-1v-1h-1v-1h-2v-1h-1v-1h-1v-1h-2v-1h-1v-1h-2v-1h-1v-1h-1v-1h-2v-1h-1v-1h-2v-1h-1v-1h-2v-1h-2v-1h-1v-1h-2v-1h-2v-1h-2v-1h-1v-1h-2v-1h-2v-1h-2v-1h-2v-1h-2v-1h-2v-1h-2v-1h-2v-1h-3v-1h-2v-1h-2v-1h-3v-1h-3v-1h-3v-1h-3v-1h-2v-1h-4v-1h-4v-1h-4v-1h-4v-1h-4v-1h-5v-1h-7v-1h-7v-1h-18v-1" fill="url(#U)"/></g></g><g clip-path="url(#V)"><g clip-path="url(#W)"><path d="M184 200v1h-3v1h-4v1h-3v1h-3v1h-3v1h-3v1h-3v1h-2v1h-3v1h-2v1h-2v1h-3v1h-2v1h-2v1h-2v1h-2v1h-2v1h-2v1h-1v1h-2v1h-2v1h-2v1h-2v1h-1v1h-2v1h-1v1h-2v1h-1v1h-2v1h-1v1h-2v1h-1v1h-2v1h-1v1h-2v1h-1v1h-1v1h-1v1h-2v1h-1v1h-1v1h-1v1h-2v1h-1v1h-1v1h-1v1h-2v1h-1v1h-1v1h-1v1h-1v1h-1v1h-1v1h-1v1h-1v1h-1v1h-1v1h-1v1h-1v1h-1v1h-1v1h-1v1h-1v1h-1v1h-1v1h-1v2h-1v1h-1v1h-1v1h-1v1h-1v1h-1v1h-1v2h-1v1h-1v1h-1v1h-1v2h-1v1h-1v1h-1v2h-1v1h-1v1h-1v2h-1v1h-1v2h-1v1h-1v1h-1v2h-1v2h2v1h1v1h2v1h1v1h2v1h1v1h1v1h2v1h1v1h2v1h1v1h2v1h1v1h2v1h1v1h2v1h1v1h1v1h2v1h1v1h2v1h2v-2h1v-1h1v-2h1v-1h1v-2h1v-1h1v-1h1v-2h1v-1h1v-2h1v-1h1v-1h1v-1h1v-1h1v-2h1v-1h1v-1h1v-1h1v-1h1v-2h1v-1h1v-1h1v-1h1v-1h1v-1h1v-1h1v-1h1v-1h1v-1h1v-1h1v-1h1v-1h1v-1h1v-1h1v-1h1v-1h2v-1h1v-1h1v-1h1v-1h1v-1h2v-1h1v-1h1v-1h1v-1h1v-1h2v-1h1v-1h2v-1h1v-1h2v-1h1v-1h2v-1h1v-1h1v-1h2v-1h2v-1h2v-1h1v-1h2v-1h2v-1h2v-1h2v-1h2v-1h2v-1h2v-1h3v-1h2v-1h2v-1h3v-1h2v-1h3v-1h4v-1h3v-1h3v-1h3v-4h-1v-3h-1v-4h-1v-3h-1v-3h-1v-4h-1v-3h-1v-3h-1v-4h-1v-3h-1v-3" fill="url(#X)"/></g></g><g clip-path="url(#Y)"><g clip-path="url(#Z)"><path d="M444 391v1h-4v1h-4v1h-4v1h-5v1h-4v1h-4v1h-4v1h-3v1h1v6h1v7h1v6h1v6h1v13h1v38h-1v11h-1v7h-1v7h-1v6h-1v4h-1v5h-1v4h-1v4h-1v4h-1v4h-1v3h-1v2h-1v3h-1v3h-1v3h-1v3h-1v3h-1v2h-1v3h-1v2h-1v2h-1v2h-1v2h-1v2h-1v3h-1v2h-1v2h-1v2h-1v2h-1v1h-1v2h-1v2h-1v1h-1v2h-1v2h-1v2h-1v1h-1v2h-1v2h-1v1h-1v2h-1v1h-1v1h-1v2h-1v1h-1v1h-1v2h-1v1h-1v1h-1v2h-1v1h-1v2h-1v1h-1v1h-1v1h-1v1h-1v1h-1v1h-1v1h-1v2h-1v1h-1v1h-1v1h-1v1h-1v1h-1v1h-1v1h-1v3h1v1h1v1h1v1h1v2h1v1h1v1h1v1h1v1h1v1h1v2h1v1h1v1h1v1h1v1h1v1h1v2h1v1h1v1h1v1h1v1h1v1h1v2h1v1h1v1h1v-1h1v-1h1v-1h1v-1h1v-1h1v-1h1v-1h1v-1h1v-1h1v-1h1v-1h1v-1h1v-1h1v-1h1v-1h1v-2h1v-1h1v-1h1v-1h1v-1h1v-1h1v-2h1v-1h1v-1h1v-2h1v-1h1v-1h1v-2h1v-1h1v-1h1v-2h1v-1h1v-1h1v-1h1v-2h1v-2h1v-1h1v-2h1v-2h1v-1h1v-2h1v-1h1v-2h1v-2h1v-1h1v-2h1v-2h1v-1h1v-2h1v-3h1v-2h1v-2h1v-2h1v-2h1v-2h1v-2h1v-3h1v-2h1v-2h1v-2h1v-3h1v-3h1v-3h1v-3h1v-3h1v-2h1v-3h1v-3h1v-3h1v-5h1v-4h1v-4h1v-4h1v-5h1v-4h1v-6h1v-7h1v-7h1v-8h1v-14h1v-34h-1v-13h-1v-10h-1v-6h-1v-5h-1v-5h-1v-6h-1v-5h-1v-3" fill="url(#a)"/></g></g><g clip-path="url(#b)"><g clip-path="url(#c)"><path d="M223 194v1h-15v1h-6v1h-5v1h-5v1h-6v1h-1v4h1v3h1v4h1v3h1v3h1v4h1v3h1v4h1v3h1v3h1v2h5v-1h6v-1h5v-1h11v-1h23v1h8v1h7v1h5v1h4v1h4v1h4v1h3v1h3v1h3v1h2v1h3v1h3v1h2v1h2v1h2v1h2v1h2v1h2v1h2v1h2v1h2v1h1v1h2v1h2v1h1v1h2v1h2v1h1v1h1v1h2v1h1v1h1v1h2v1h1v1h2v1h1v1h1v1h1v1h1v1h2v1h1v1h1v1h1v1h1v1h1v1h2v1h1v1h1v1h1v1h1v1h1v1h1v1h1v1h1v2h1v1h1v1h1v1h1v1h1v1h1v1h1v1h1v1h1v2h1v1h1v1h1v1h1v2h1v1h1v1h1v1h1v2h1v1h1v2h1v1h1v2h1v1h1v1h1v2h1v1h1v2h1v2h1v1h1v2h1v2h1v1h1v2h1v2h1v2h1v2h1v2h1v2h1v2h1v2h1v2h1v2h1v2h1v2h1v3h1v2h1v3h1v2h1v3h1v3h1v3h1v3h1v3h1v3h1v3h1v4h1v4h1v4h1v4h4v-1h4v-1h4v-1h4v-1h4v-1h5v-1h4v-1h4v-1h2v-3h-1v-4h-1v-4h-1v-3h-1v-4h-1v-4h-1v-3h-1v-3h-1v-3h-1v-3h-1v-3h-1v-3h-1v-3h-1v-2h-1v-3h-1v-2h-1v-3h-1v-2h-1v-2h-1v-3h-1v-2h-1v-2h-1v-2h-1v-2h-1v-2h-1v-2h-1v-2h-1v-2h-1v-2h-1v-2h-1v-2h-1v-1h-1v-2h-1v-2h-1v-1h-1v-2h-1v-2h-1v-1h-1v-2h-1v-2h-1v-1h-1v-2h-1v-1h-1v-1h-1v-2h-1v-1h-1v-2h-1v-1h-1v-2h-1v-1h-1v-1h-1v-2h-1v-1h-1v-1h-1v-1h-1v-2h-1v-1h-1v-1h-1v-1h-1v-1h-1v-2h-1v-1h-1v-1h-1v-1h-1v-1h-1v-1h-1v-1h-1v-1h-1v-1h-1v-1h-1v-1h-1v-1h-1v-1h-1v-1h-1v-1h-1v-1h-1v-1h-1v-1h-1v-1h-1v-1h-1v-1h-1v-1h-1v-1h-1v-1h-2v-1h-1v-1h-1v-1h-1v-1h-1v-1h-1v-1h-1v-1h-2v-1h-1v-1h-2v-1h-1v-1h-1v-1h-2v-1h-1v-1h-2v-1h-1v-1h-1v-1h-2v-1h-1v-1h-2v-1h-2v-1h-1v-1h-2v-1h-2v-1h-1v-1h-2v-1h-2v-1h-2v-1h-2v-1h-2v-1h-2v-1h-2v-1h-2v-1h-2v-1h-2v-1h-3v-1h-2v-1h-3v-1h-3v-1h-3v-1h-2v-1h-3v-1h-4v-1h-4v-1h-4v-1h-4v-1h-4v-1h-7v-1h-7v-1h-12v-1" fill="url(#d)"/></g></g><g clip-path="url(#e)"><g clip-path="url(#f)"><path d="M182 200v1h-3v1h-3v1h-4v1h-3v1h-3v1h-3v1h-2v1h-2v1h-3v1h-2v1h-3v1h-2v1h-2v1h-2v1h-2v1h-2v1h-2v1h-2v1h-2v1h-1v1h-2v1h-2v1h-2v1h-1v1h-2v1h-1v1h-2v1h-1v1h-2v1h-1v1h-2v1h-1v1h-2v1h-1v1h-2v1h-1v1h-1v1h-1v1h-1v1h-2v1h-1v1h-1v1h-1v1h-2v1h-1v1h-1v1h-1v1h-1v1h-1v1h-1v1h-2v1h-1v1h-1v1h-1v1h-1v1h-1v1h-1v1h-1v1h-1v1h-1v1h-1v1h-1v1h-1v1h-1v2h-1v1h-1v1h-1v1h-1v1h-1v1h-1v2h-1v1h-1v1h-1v1h-1v1h-1v1h-1v2h-1v1h-1v1h-1v2h-1v1h-1v2h-1v1h-1v1h-1v2h-1v1h-1v1h-1v2h-1v3h2v1h1v1h2v1h1v1h2v1h1v1h1v1h2v1h1v1h2v1h1v1h2v1h1v1h2v1h1v1h2v1h1v1h1v1h2v1h1v1h2v1h1v-1h1v-2h1v-1h1v-1h1v-2h1v-1h1v-2h1v-1h1v-2h1v-1h1v-1h1v-2h1v-1h1v-1h1v-1h1v-1h1v-1h1v-2h1v-1h1v-1h1v-1h1v-1h1v-2h1v-1h1v-1h1v-1h1v-1h1v-1h1v-1h1v-1h1v-1h1v-1h1v-1h1v-1h2v-1h1v-1h1v-1h1v-1h1v-1h1v-1h2v-1h1v-1h1v-1h1v-1h1v-1h2v-1h1v-1h1v-1h2v-1h1v-1h2v-1h1v-1h2v-1h1v-1h2v-1h1v-1h2v-1h2v-1h2v-1h1v-1h2v-1h2v-1h2v-1h2v-1h2v-1h2v-1h2v-1h3v-1h2v-1h3v-1h2v-1h3v-1h3v-1h4v-1h3v-1h3v-1h1v-3h-1v-3h-1v-3h-1v-4h-1v-3h-1v-4h-1v-3h-1v-3h-1v-4h-1v-3h-1v-3" fill="url(#g)"/></g></g><g clip-path="url(#h)"><path d="M232.531 221.504c-108.051 0-195.976 105.437-195.976 235.031 0 129.582 87.925 234.996 195.976 234.996 108.071 0 195.985-105.414 195.985-234.996 0-129.594-87.914-235.031-195.985-235.031m0 475.191c-110.91 0-201.14-107.742-201.14-240.16 0-132.449 90.23-240.195 201.14-240.195 110.918 0 201.145 107.746 201.145 240.195 0 132.418-90.227 240.16-201.145 240.16" fill="#fff"/></g><g clip-path="url(#i)"><path d="M432.379 456.535c0 131.711-89.649 238.871-199.848 238.871S32.68 588.246 32.68 456.535c0-131.73 89.652-238.902 199.851-238.902s199.848 107.172 199.848 238.902M232.531 220.227c-108.769 0-197.277 105.996-197.277 236.308 0 130.289 88.508 236.278 197.277 236.278 108.778 0 197.274-105.989 197.274-236.278 0-130.312-88.496-236.308-197.274-236.308" fill="#fff"/></g><g clip-path="url(#j)"><g clip-path="url(#k)"><path d="M229 231v1h-16v1h-5v1h-6v1h-5v1h-4v1h-3v1h-3v1h-4v1h-3v1h-3v1h-2v1h-2v1h-3v1h-2v1h-2v1h-2v1h-3v1h-2v1h-1v1h-2v1h-2v1h-2v1h-1v1h-2v1h-2v1h-1v1h-2v1h-1v1h-2v1h-1v1h-1v1h-2v1h-1v1h-1v1h-2v1h-1v1h-2v1h-1v1h-1v1h-1v1h-1v1h-1v1h-1v1h-2v1h-1v1h-1v1h-1v1h-1v1h-1v1h-1v1h-1v1h-1v1h-1v1h-1v1h-1v1h-1v1h-1v1h-1v1h-1v2h-1v1h-1v1h-1v1h-1v1h-1v1h-1v1h-1v2h-1v1h-1v1h-1v2h-1v1h-1v1h-1v2h-1v1h-1v1h-1v2h-1v1h-1v2h-1v1h-1v2h-1v2h-1v1h-1v2h-1v1h-1v2h-1v2h-1v1h-1v2h-1v2h-1v2h-1v2h-1v2h-1v2h-1v2h-1v2h-1v2h-1v2h-1v3h-1v2h-1v3h-1v2h-1v3h-1v2h-1v3h-1v2h-1v4h-1v3h-1v3h-1v4h-1v3h-1v3h-1v5h-1v4h-1v5h-1v5h-1v6h-1v8h-1v8h-1v16h-1v22h1v16h1v8h1v8h1v6h1v5h1v4h1v5h1v5h1v3h1v3h1v4h1v3h1v3h1v4h1v2h1v3h1v2h1v3h1v2h1v3h1v2h1v3h1v2h1v2h1v2h1v2h1v2h1v2h1v2h1v2h1v2h1v2h1v1h1v2h1v1h1v2h1v2h1v1h1v2h1v2h1v1h1v2h1v1h1v1h1v2h1v1h1v2h1v1h1v1h1v2h1v1h1v1h1v2h1v1h1v1h1v1h1v1h1v1h1v1h1v1h1v2h1v1h1v1h1v1h1v1h1v1h1v1h1v1h1v1h1v1h1v1h1v1h1v1h1v1h2v1h1v1h1v1h1v1h1v1h1v1h1v1h2v1h1v1h1v1h2v1h1v1h1v1h2v1h1v1h1v1h2v1h1v1h2v1h2v1h1v1h2v1h2v1h1v1h2v1h2v1h1v1h2v1h3v1h2v1h2v1h2v1h3v1h2v1h2v1h3v1h4v1h3v1h3v1h3v1h4v1h6v1h5v1h6v1h16v1h5v-1h16v-1h6v-1h5v-1h6v-1h4v-1h3v-1h3v-1h3v-1h4v-1h3v-1h2v-1h2v-1h3v-1h2v-1h2v-1h2v-1h3v-1h2v-1h1v-1h2v-1h2v-1h1v-1h2v-1h2v-1h2v-1h1v-1h2v-1h1v-1h2v-1h1v-1h1v-1h2v-1h1v-1h1v-1h2v-1h1v-1h1v-1h2v-1h1v-1h1v-1h1v-1h1v-1h1v-1h2v-1h1v-1h1v-1h1v-1h1v-1h1v-1h1v-1h1v-1h1v-1h1v-1h1v-1h1v-1h1v-1h1v-1h1v-1h1v-2h1v-1h1v-1h1v-1h1v-1h1v-1h1v-1h1v-2h1v-1h1v-1h1v-2h1v-1h1v-1h1v-2h1v-1h1v-1h1v-2h1v-1h1v-2h1v-1h1v-2h1v-2h1v-1h1v-2h1v-1h1v-2h1v-2h1v-1h1v-2h1v-2h1v-2h1v-2h1v-2h1v-2h1v-2h1v-2h1v-2h1v-2h1v-2h1v-3h1v-2h1v-3h1v-3h1v-2h1v-3h1v-2h1v-3h1v-4h1v-3h1v-3h1v-4h1v-3h1v-5h1v-4h1v-5h1v-5h1v-5h1v-8h1v-8h1v-15h1v-26h-1v-15h-1v-8h-1v-8h-1v-5h-1v-5h-1v-5h-1v-5h-1v-4h-1v-3h-1v-4h-1v-3h-1v-3h-1v-4h-1v-3h-1v-2h-1v-3h-1v-3h-1v-2h-1v-3h-1v-2h-1v-3h-1v-2h-1v-2h-1v-2h-1v-2h-1v-2h-1v-2h-1v-2h-1v-2h-1v-2h-1v-2h-1v-2h-1v-1h-1v-2h-1v-2h-1v-1h-1v-2h-1v-2h-1v-1h-1v-2h-1v-1h-1v-2h-1v-1h-1v-2h-1v-1h-1v-1h-1v-2h-1v-1h-1v-1h-1v-2h-1v-1h-1v-1h-1v-2h-1v-1h-1v-1h-1v-1h-1v-1h-1v-1h-1v-1h-1v-2h-1v-1h-1v-1h-1v-1h-1v-1h-1v-1h-1v-1h-1v-1h-1v-1h-1v-1h-1v-1h-1v-1h-1v-1h-1v-1h-1v-1h-1v-1h-1v-1h-2v-1h-1v-1h-1v-1h-1v-1h-1v-1h-1v-1h-2v-1h-1v-1h-1v-1h-2v-1h-1v-1h-2v-1h-1v-1h-1v-1h-2v-1h-1v-1h-2v-1h-1v-1h-2v-1h-2v-1h-1v-1h-2v-1h-2v-1h-2v-1h-1v-1h-2v-1h-2v-1h-3v-1h-2v-1h-2v-1h-2v-1h-3v-1h-2v-1h-3v-1h-3v-1h-3v-1h-4v-1h-3v-1h-4v-1h-5v-1h-6v-1h-5v-1h-16v-1" fill="url(#l)"/></g></g><g clip-path="url(#m)"><g clip-path="url(#n)"><path d="M232 233v1h-14v1h-9v1h-4v1h-5v1h-5v1h-4v1h-3v1h-3v1h-3v1h-2v1h-3v1h-3v1h-2v1h-3v1h-2v1h-2v1h-2v1h-1v1h-2v1h-2v1h-2v1h-2v1h-2v1h-2v1h-1v1h-2v1h-1v1h-2v1h-1v1h-2v1h-1v1h-1v1h-2v1h-1v1h-2v1h-1v1h-1v1h-2v1h-1v1h-1v1h-1v1h-1v1h-1v1h-1v1h-2v1h-1v1h-1v1h-1v1h-1v1h-1v1h-1v1h-1v1h-1v1h-1v1h-1v1h-1v1h-1v1h-1v1h-1v2h-1v1h-1v1h-1v1h-1v1h-1v1h-1v1h-1v1h-1v2h-1v1h-1v1h-1v2h-1v1h-1v2h-1v1h-1v1h-1v2h-1v1h-1v1h-1v2h-1v1h-1v3h2v1h3v1h1v-1h1v-1h1v-1h1v-1h1v-1h1v-1h1v-1h1v-2h1v-1h1v-1h1v-1h1v-1h1v-1h1v-1h1v-1h1v-1h2v-1h1v-1h1v-1h1v-1h1v-1h1v-1h1v-1h2v-1h1v-1h1v-1h1v-1h2v-1h1v-1h1v-1h2v-1h1v-1h2v-1h1v-1h1v-1h2v-1h1v-1h2v-1h2v-1h2v-1h1v-1h2v-1h2v-1h2v-1h1v-1h3v-1h2v-1h2v-1h3v-1h2v-1h2v-1h3v-1h3v-1h3v-1h3v-1h3v-1h4v-1h5v-1h5v-1h6v-1h13v-1h10v1h13v1h6v1h5v1h5v1h3v1h3v1h3v1h4v1h3v1h2v1h3v1h2v1h2v1h2v1h2v1h2v1h2v1h2v1h2v1h1v1h2v1h2v1h1v1h2v1h2v1h1v1h2v1h1v1h1v1h2v1h1v1h1v1h2v1h1v1h1v1h1v1h2v1h1v1h1v1h1v1h1v1h1v1h1v1h1v1h1v1h1v1h1v1h2v1h1v1h1v1h1v2h1v1h1v1h1v1h1v1h1v1h1v1h1v2h1v1h1v1h1v1h1v1h1v2h1v1h1v1h1v2h1v1h1v1h1v2h1v1h1v2h1v1h1v1h1v2h1v2h1v1h1v2h1v2h1v1h1v2h1v2h1v2h1v1h1v2h1v2h1v2h1v2h1v2h1v2h1v2h1v3h1v2h1v2h1v3h1v2h1v3h1v2h1v3h1v3h1v2h1v4h1v3h1v4h1v3h1v4h1v3h1v5h1v5h1v5h1v5h1v7h1v8h1v8h1v41h-1v18h-1v6h-1v6h-1v6h-1v6h-1v6h-1v5h-1v3h-1v4h-1v3h-1v3h-1v3h-1v4h-1v3h-1v3h-1v4h-1v2h-1v2h-1v3h-1v2h-1v2h-1v2h-1v2h-1v2h-1v2h-1v2h-1v2h-1v2h-1v2h-1v2h-1v3h1v-1h1v-1h1v-1h1v-2h1v-1h1v-1h1v-1h1v-2h1v-1h1v-1h1v-1h1v-2h1v-1h1v-2h1v-1h1v-2h1v-1h1v-2h1v-1h1v-2h1v-2h1v-1h1v-2h1v-1h1v-2h1v-2h1v-2h1v-2h1v-2h1v-2h1v-2h1v-2h1v-2h1v-2h1v-3h1v-2h1v-3h1v-2h1v-3h1v-2h1v-3h1v-3h1v-3h1v-4h1v-3h1v-4h1v-3h1v-4h1v-5h1v-5h1v-5h1v-4h1v-8h1v-9h1v-9h1v-44h-1v-9h-1v-8h-1v-8h-1v-4h-1v-5h-1v-5h-1v-5h-1v-3h-1v-4h-1v-3h-1v-3h-1v-4h-1v-3h-1v-3h-1v-2h-1v-3h-1v-2h-1v-3h-1v-2h-1v-3h-1v-2h-1v-2h-1v-3h-1v-2h-1v-2h-1v-2h-1v-2h-1v-2h-1v-2h-1v-2h-1v-1h-1v-2h-1v-1h-1v-2h-1v-2h-1v-1h-1v-2h-1v-2h-1v-1h-1v-2h-1v-1h-1v-2h-1v-1h-1v-1h-1v-2h-1v-1h-1v-1h-1v-2h-1v-1h-1v-1h-1v-2h-1v-1h-1v-1h-1v-1h-1v-2h-1v-1h-1v-1h-1v-1h-1v-1h-1v-1h-1v-1h-1v-1h-1v-1h-1v-2h-1v-1h-1v-1h-1v-1h-2v-1h-1v-1h-1v-1h-1v-1h-1v-1h-1v-1h-1v-1h-1v-1h-1v-1h-1v-1h-2v-1h-1v-1h-1v-1h-2v-1h-1v-1h-1v-1h-2v-1h-1v-1h-1v-1h-2v-1h-1v-1h-1v-1h-2v-1h-2v-1h-1v-1h-2v-1h-2v-1h-1v-1h-2v-1h-2v-1h-2v-1h-1v-1h-3v-1h-2v-1h-2v-1h-2v-1h-3v-1h-2v-1h-2v-1h-3v-1h-3v-1h-4v-1h-3v-1h-3v-1h-4v-1h-5v-1h-6v-1h-5v-1h-17v-1" fill="url(#o)"/></g></g><g clip-path="url(#p)"><g clip-path="url(#q)"><path d="M126 271v1h-1v1h-1v1h-1v1h-2v1h-1v1h-1v1h-1v1h-1v1h-1v1h-1v1h-1v1h-1v1h-1v1h-1v1h-1v1h-1v1h-1v1h-1v1h-1v1h-1v1h-1v1h-1v1h-1v2h-1v1h-1v1h-1v1h-1v1h-1v1h-1v2h-1v1h-1v1h-1v1h-1v1h-1v2h-1v1h-1v1h-1v2h-1v1h-1v1h-1v2h-1v1h-1v2h-1v1h3v1h3v1h2v1h3v1h3v1h2v1h2v1h2v1h2v1h2v1h2v1h1v1h2v1h2v1h2v1h2v1h1v1h2v1h1v1h2v1h1v1h2v1h1v1h2v1h1v1h2v1h1v1h1v1h2v1h1v1h1v1h2v1h1v1h1v1h1v1h2v1h1v1h1v1h1v1h2v1h1v1h1v1h1v1h2v1h1v1h1v1h1v1h1v1h1v1h1v1h1v1h1v1h1v1h2v1h1v1h1v1h1v1h1v1h1v1h1v1h1v1h1v1h1v1h1v1h1v1h1v1h1v1h1v1h1v1h1v1h1v1h1v1h1v1h1v1h1v1h1v1h1v1h1v1h1v1h1v1h1v1h1v1h1v1h1v1h1v1h1v2h1v1h1v1h1v1h1v1h1v1h1v1h1v2h1v1h1v1h1v1h1v1h1v1h1v1h1v1h1v2h1v1h1v1h1v1h1v2h1v1h1v1h1v1h1v2h1v1h1v1h1v1h1v2h1v1h1v1h1v1h1v2h1v1h1v1h1v1h1v2h1v1h1v1h1v2h1v1h1v2h1v1h1v1h1v2h1v1h1v2h1v1h1v1h1v2h1v1h1v2h1v1h1v1h1v2h1v1h1v2h1v1h1v2h1v1h1v2h1v2h1v1h1v2h1v1h1v2h1v1h1v2h1v2h1v1h1v2h1v1h1v2h1v2h1v1h1v2h1v2h1v2h1v2h1v1h1v2h1v2h1v2h1v2h1v1h1v2h1v2h1v2h1v2h1v2h1v2h1v2h1v2h1v2h1v2h1v3h1v2h1v2h1v2h1v2h1v2h1v3h1v2h1v3h1v3h1v2h1v3h1v2h1v3h1v3h1v3h1v3h1v4h1v3h1v4h1v3h1v5h1v5h1v6h1v7h1v19h1v1h3v-1h2v-1h1v-1h2v-1h1v-1h1v-1h1v-1h2v-1h1v-1h1v-1h1v-1h2v-1h1v-1h1v-1h1v-1h1v-1h1v-1h1v-1h1v-1h1v-1h1v-1h1v-1h1v-1h1v-1h1v-1h1v-1h1v-1h1v-1h1v-1h1v-1h1v-2h1v-1h1v-1h1v-1h1v-2h1v-1h1v-1h1v-2h1v-1h1v-1h1v-3h1v-5h1v-5h1v-6h1v-26h-1v-7h-1v-7h-1v-7h-1v-5h-1v-3h-1v-4h-1v-4h-1v-4h-1v-4h-1v-3h-1v-3h-1v-3h-1v-3h-1v-2h-1v-3h-1v-3h-1v-3h-1v-2h-1v-3h-1v-3h-1v-2h-1v-2h-1v-2h-1v-2h-1v-2h-1v-2h-1v-3h-1v-2h-1v-2h-1v-2h-1v-2h-1v-2h-1v-2h-1v-2h-1v-2h-1v-2h-1v-1h-1v-2h-1v-2h-1v-2h-1v-2h-1v-1h-1v-2h-1v-2h-1v-2h-1v-1h-1v-2h-1v-2h-1v-2h-1v-1h-1v-2h-1v-1h-1v-2h-1v-1h-1v-2h-1v-1h-1v-2h-1v-1h-1v-2h-1v-1h-1v-2h-1v-1h-1v-2h-1v-1h-1v-2h-1v-1h-1v-2h-1v-1h-1v-1h-1v-2h-1v-1h-1v-1h-1v-1h-1v-2h-1v-1h-1v-1h-1v-2h-1v-1h-1v-1h-1v-1h-1v-2h-1v-1h-1v-1h-1v-2h-1v-1h-1v-1h-1v-1h-1v-2h-1v-1h-1v-1h-1v-1h-1v-1h-1v-1h-1v-1h-1v-2h-1v-1h-1v-1h-1v-1h-1v-1h-1v-1h-1v-1h-1v-1h-1v-1h-1v-1h-1v-2h-1v-1h-1v-1h-1v-1h-1v-1h-1v-1h-1v-1h-1v-1h-1v-1h-1v-1h-1v-1h-1v-1h-1v-1h-1v-1h-1v-1h-1v-1h-1v-1h-1v-1h-2v-1h-1v-1h-1v-1h-1v-1h-1v-1h-1v-1h-1v-1h-1v-1h-1v-1h-1v-1h-1v-1h-1v-1h-2v-1h-1v-1h-1v-1h-1v-1h-2v-1h-1v-1h-1v-1h-2v-1h-1v-1h-1v-1h-1v-1h-2v-1h-1v-1h-1v-1h-1v-1h-2v-1h-1v-1h-1v-1h-2v-1h-2v-1h-1v-1h-2v-1h-1v-1h-2v-1h-1v-1h-2v-1h-2v-1h-1v-1h-2v-1h-1v-1h-2v-1h-1v-1h-2v-1h-2v-1h-3v-1h-2v-1h-2v-1h-2v-1h-2v-1h-2v-1h-2v-1h-2v-1h-3v-1h-3v-1h-3v-1h-3v-1h-3v-1h-3v-1h-4v-1h-7v-1h-9v-1" fill="url(#r)"/></g></g><g clip-path="url(#s)"><g clip-path="url(#t)"><path d="M223 229v1h-12v1h-5v1h-6v1h-5v1h-4v1h-3v1h-3v1h-3v1h-3v1h-3v1h-2v1h-3v1h-2v1h-2v1h-2v1h-3v1h-2v1h-2v1h-1v1h-2v1h-2v1h-2v1h-1v1h-2v1h-2v1h-1v1h-2v1h-1v1h-2v1h-1v1h-1v1h-2v1h-1v1h-2v1h-1v1h-1v1h-2v1h-1v1h-1v1h-1v1h-1v1h-1v1h-2v1h-1v1h-1v1h-1v1h-1v1h-1v1h-1v1h-1v1h-1v1h-1v1h-1v1h-1v1h-1v1h-1v1h-1v1h-1v1h-1v1h-1v2h-1v1h-1v1h-1v1h-1v1h-1v1h-1v2h-1v1h-1v1h-1v2h-1v1h-1v1h-1v2h-1v1h-1v1h-1v2h-1v1h-1v1h-1v2h-1v2h-1v1h-1v2h-1v2h-1v1h-1v2h-1v1h-1v2h-1v2h-1v1h-1v2h-1v2h-1v2h-1v2h-1v2h-1v2h-1v2h-1v2h-1v3h-1v2h-1v3h-1v2h-1v3h-1v2h-1v3h-1v2h-1v3h-1v3h-1v4h-1v3h-1v3h-1v4h-1v3h-1v5h-1v4h-1v5h-1v5h-1v6h-1v8h-1v8h-1v17h-1v20h1v17h1v8h1v8h1v6h1v5h1v5h1v4h1v5h1v3h1v4h1v3h1v3h1v4h1v3h1v3h1v2h1v3h1v2h1v3h1v2h1v3h1v2h1v2h1v2h1v2h1v2h1v2h1v2h1v2h1v2h1v2h1v2h1v2h1v2h1v1h1v2h1v1h1v2h1v2h1v1h1v2h1v2h1v1h1v1h1v2h1v1h1v1h1v2h1v1h1v1h1v2h1v1h1v1h1v2h1v1h1v1h1v1h1v1h1v1h1v1h1v2h1v1h1v1h1v1h1v1h1v1h1v1h1v1h1v1h1v1h1v1h1v1h1v1h1v1h1v1h1v1h2v1h1v1h1v1h1v1h1v1h1v1h2v1h1v1h1v1h2v1h1v1h1v1h2v1h1v1h1v1h2v1h1v1h2v1h1v1h2v1h2v1h2v1h1v1h2v1h2v1h1v1h2v1h3v1h2v1h2v1h2v1h3v1h2v1h2v1h3v1h3v1h3v1h4v1h3v1h3v1h6v1h5v1h5v1h14v1h15v-1h14v-1h5v-1h5v-1h6v-1h3v-1h3v-1h4v-1h3v-1h3v-1h3v-1h2v-1h2v-1h3v-1h2v-1h2v-1h2v-1h3v-1h2v-1h1v-1h2v-1h2v-1h1v-1h2v-1h2v-1h2v-1h1v-1h2v-1h1v-1h2v-1h1v-1h1v-1h2v-1h1v-1h1v-1h2v-1h1v-1h2v-1h1v-1h1v-1h1v-1h1v-1h1v-1h1v-1h2v-1h1v-1h1v-1h1v-1h1v-1h1v-1h1v-1h1v-1h1v-1h1v-1h1v-1h1v-1h1v-1h1v-1h1v-1h1v-2h1v-1h1v-1h1v-1h1v-1h1v-1h1v-1h1v-2h1v-1h1v-1h1v-2h1v-1h1v-1h1v-2h1v-1h1v-1h1v-2h1v-1h1v-1h1v-2h1v-2h1v-1h1v-2h1v-1h1v-2h1v-2h1v-1h1v-2h1v-2h1v-1h1v-2h1v-2h1v-2h1v-2h1v-2h1v-2h1v-2h1v-2h1v-3h1v-2h1v-3h1v-2h1v-3h1v-2h1v-3h1v-2h1v-3h1v-3h1v-4h1v-3h1v-3h1v-3h1v-4h1v-4h1v-5h1v-5h1v-5h1v-5h1v-8h1v-8h1v-16h1v-24h-1v-16h-1v-8h-1v-8h-1v-5h-1v-5h-1v-5h-1v-5h-1v-4h-1v-4h-1v-3h-1v-3h-1v-4h-1v-3h-1v-3h-1v-3h-1v-2h-1v-3h-1v-2h-1v-3h-1v-3h-1v-2h-1v-3h-1v-2h-1v-2h-1v-2h-1v-2h-1v-2h-1v-2h-1v-2h-1v-2h-1v-2h-1v-1h-1v-2h-1v-2h-1v-1h-1v-2h-1v-2h-1v-1h-1v-2h-1v-1h-1v-2h-1v-2h-1v-1h-1v-1h-1v-2h-1v-1h-1v-1h-1v-2h-1v-1h-1v-2h-1v-1h-1v-1h-1v-2h-1v-1h-1v-1h-1v-1h-1v-1h-1v-1h-1v-1h-1v-2h-1v-1h-1v-1h-1v-1h-1v-1h-1v-1h-1v-1h-1v-1h-1v-1h-1v-1h-1v-1h-1v-1h-1v-1h-1v-1h-1v-1h-1v-1h-1v-1h-1v-1h-2v-1h-1v-1h-1v-1h-1v-1h-1v-1h-1v-1h-2v-1h-1v-1h-1v-1h-2v-1h-1v-1h-1v-1h-2v-1h-1v-1h-2v-1h-1v-1h-2v-1h-1v-1h-2v-1h-2v-1h-1v-1h-2v-1h-2v-1h-1v-1h-2v-1h-2v-1h-2v-1h-3v-1h-2v-1h-2v-1h-2v-1h-3v-1h-2v-1h-3v-1h-3v-1h-3v-1h-3v-1h-3v-1h-4v-1h-5v-1h-6v-1h-5v-1h-12v-1zm-6 8v-1h31v1h7v1h5v1h6v1h4v1h3v1h4v1h3v1h3v1h3v1h2v1h3v1h2v1h2v1h2v1h3v1h2v1h2v1h1v1h2v1h2v1h2v1h1v1h2v1h2v1h1v1h2v1h1v1h2v1h1v1h1v1h2v1h1v1h1v1h2v1h1v1h1v1h2v1h1v1h1v1h1v1h1v1h1v1h1v1h1v1h2v1h1v1h1v1h1v1h1v1h1v1h1v1h1v1h1v1h1v1h1v2h1v1h1v1h1v1h1v1h1v1h1v1h1v1h1v2h1v1h1v1h1v2h1v1h1v1h1v2h1v1h1v1h1v2h1v1h1v1h1v2h1v2h1v1h1v2h1v2h1v1h1v2h1v1h1v2h1v2h1v1h1v2h1v3h1v2h1v2h1v2h1v2h1v2h1v2h1v2h1v2h1v3h1v2h1v3h1v2h1v3h1v2h1v4h1v3h1v3h1v3h1v4h1v3h1v4h1v5h1v5h1v4h1v5h1v8h1v8h1v14h1v28h-1v14h-1v7h-1v8h-1v5h-1v5h-1v5h-1v5h-1v4h-1v3h-1v3h-1v4h-1v3h-1v3h-1v4h-1v2h-1v3h-1v2h-1v3h-1v2h-1v3h-1v2h-1v2h-1v2h-1v2h-1v2h-1v2h-1v2h-1v2h-1v2h-1v2h-1v2h-1v2h-1v2h-1v1h-1v2h-1v1h-1v2h-1v2h-1v1h-1v2h-1v2h-1v1h-1v1h-1v2h-1v1h-1v1h-1v2h-1v1h-1v1h-1v2h-1v1h-1v1h-1v2h-1v1h-1v1h-1v1h-1v1h-1v1h-1v1h-1v1h-1v1h-1v2h-1v1h-1v1h-1v1h-1v1h-1v1h-1v1h-1v1h-1v1h-2v1h-1v1h-1v1h-1v1h-1v1h-1v1h-1v1h-1v1h-1v1h-2v1h-1v1h-1v1h-2v1h-1v1h-1v1h-2v1h-1v1h-1v1h-2v1h-1v1h-2v1h-2v1h-1v1h-2v1h-2v1h-1v1h-2v1h-2v1h-1v1h-2v1h-3v1h-2v1h-2v1h-2v1h-3v1h-2v1h-2v1h-3v1h-4v1h-3v1h-3v1h-3v1h-5v1h-5v1h-5v1h-9v1h-27v-1h-9v-1h-5v-1h-5v-1h-5v-1h-3v-1h-3v-1h-3v-1h-4v-1h-3v-1h-2v-1h-2v-1h-3v-1h-2v-1h-2v-1h-2v-1h-2v-1h-2v-1h-2v-1h-2v-1h-2v-1h-1v-1h-2v-1h-2v-1h-1v-1h-2v-1h-2v-1h-1v-1h-1v-1h-2v-1h-1v-1h-2v-1h-1v-1h-1v-1h-2v-1h-1v-1h-1v-1h-2v-1h-1v-1h-1v-1h-1v-1h-1v-1h-1v-1h-1v-1h-1v-1h-1v-1h-2v-1h-1v-1h-1v-1h-1v-1h-1v-1h-1v-1h-1v-1h-1v-2h-1v-1h-1v-1h-1v-1h-1v-1h-1v-1h-1v-1h-1v-1h-1v-1h-1v-1h-1v-2h-1v-1h-1v-1h-1v-2h-1v-1h-1v-1h-1v-2h-1v-1h-1v-1h-1v-2h-1v-1h-1v-2h-1v-1h-1v-2h-1v-1h-1v-2h-1v-2h-1v-1h-1v-2h-1v-2h-1v-1h-1v-2h-1v-2h-1v-2h-1v-2h-1v-2h-1v-2h-1v-2h-1v-2h-1v-2h-1v-2h-1v-2h-1v-2h-1v-3h-1v-2h-1v-3h-1v-3h-1v-2h-1v-3h-1v-3h-1v-3h-1v-3h-1v-4h-1v-3h-1v-3h-1v-4h-1v-5h-1v-5h-1v-5h-1v-5h-1v-8h-1v-8h-1v-13h-1v-28h1v-13h1v-8h1v-8h1v-5h1v-5h1v-5h1v-5h1v-4h1v-3h1v-3h1v-4h1v-3h1v-3h1v-3h1v-3h1v-3h1v-2h1v-3h1v-2h1v-3h1v-2h1v-2h1v-2h1v-2h1v-2h1v-2h1v-2h1v-2h1v-2h1v-2h1v-2h1v-2h1v-2h1v-1h1v-2h1v-1h1v-2h1v-2h1v-1h1v-2h1v-2h1v-1h1v-1h1v-2h1v-1h1v-1h1v-2h1v-1h1v-1h1v-2h1v-1h1v-1h1v-2h1v-1h1v-1h1v-1h1v-1h1v-1h1v-1h1v-1h1v-1h1v-2h1v-1h1v-1h1v-1h1v-1h1v-1h1v-1h1v-1h1v-1h1v-1h2v-1h1v-1h1v-1h1v-1h1v-1h1v-1h1v-1h1v-1h2v-1h1v-1h1v-1h2v-1h1v-1h1v-1h2v-1h1v-1h1v-1h2v-1h1v-1h2v-1h1v-1h2v-1h2v-1h2v-1h1v-1h2v-1h2v-1h1v-1h2v-1h3v-1h2v-1h2v-1h2v-1h3v-1h2v-1h2v-1h3v-1h3v-1h4v-1h3v-1h3v-1h4v-1h6v-1h5v-1" fill="url(#u)"/></g></g><g clip-path="url(#v)"><g clip-path="url(#w)"><path d="M222 223v1h-12v1h-5v1h-6v1h-5v1h-4v1h-3v1h-3v1h-3v1h-4v1h-3v1h-2v1h-2v1h-3v1h-2v1h-2v1h-2v1h-3v1h-2v1h-1v1h-2v1h-2v1h-2v1h-1v1h-2v1h-2v1h-2v1h-1v1h-2v1h-1v1h-2v1h-1v1h-1v1h-2v1h-1v1h-1v1h-2v1h-1v1h-1v1h-2v1h-1v1h-1v1h-1v1h-1v1h-1v1h-2v1h-1v1h-1v1h-1v1h-1v1h-1v1h-1v1h-1v1h-1v1h-1v1h-1v1h-1v1h-1v1h-1v1h-1v1h-1v1h-1v1h-1v1h-1v2h-1v1h-1v1h-1v1h-1v1h-1v1h-1v2h-1v1h-1v1h-1v2h-1v1h-1v1h-1v2h-1v1h-1v1h-1v2h-1v1h-1v2h-1v1h-1v2h-1v1h-1v2h-1v2h-1v1h-1v2h-1v1h-1v2h-1v2h-1v2h-1v2h-1v2h-1v1h-1v2h-1v2h-1v2h-1v2h-1v2h-1v2h-1v3h-1v2h-1v3h-1v2h-1v3h-1v2h-1v3h-1v2h-1v4h-1v3h-1v3h-1v3h-1v4h-1v3h-1v4h-1v4h-1v5h-1v5h-1v5h-1v6h-1v8h-1v8h-1v18h-1v18h1v18h1v8h1v8h1v6h1v5h1v5h1v4h1v5h1v4h1v3h1v3h1v4h1v3h1v3h1v4h1v2h1v3h1v2h1v3h1v2h1v3h1v2h1v3h1v2h1v2h1v1h1v2h1v2h1v2h1v2h1v2h1v2h1v2h1v2h1v1h1v2h1v2h1v1h1v2h1v2h1v1h1v2h1v1h1v2h1v1h1v2h1v1h1v1h1v2h1v1h1v1h1v2h1v1h1v1h1v2h1v1h1v1h1v1h1v1h1v1h1v1h1v2h1v1h1v1h1v1h1v1h1v1h1v1h1v1h1v1h1v1h1v1h1v1h1v1h1v1h1v1h1v1h1v1h2v1h1v1h1v1h1v1h1v1h1v1h1v1h2v1h1v1h1v1h2v1h1v1h1v1h2v1h1v1h2v1h1v1h1v1h2v1h2v1h1v1h2v1h2v1h2v1h1v1h2v1h2v1h1v1h3v1h2v1h2v1h2v1h3v1h2v1h2v1h2v1h4v1h3v1h3v1h3v1h4v1h3v1h6v1h5v1h6v1h12v1h19v-1h13v-1h5v-1h5v-1h6v-1h4v-1h3v-1h3v-1h3v-1h3v-1h4v-1h2v-1h2v-1h2v-1h3v-1h2v-1h2v-1h2v-1h3v-1h1v-1h2v-1h2v-1h2v-1h1v-1h2v-1h2v-1h1v-1h2v-1h2v-1h1v-1h1v-1h2v-1h1v-1h2v-1h1v-1h1v-1h2v-1h1v-1h1v-1h2v-1h1v-1h1v-1h1v-1h1v-1h1v-1h2v-1h1v-1h1v-1h1v-1h1v-1h1v-1h1v-1h1v-1h1v-1h1v-1h1v-1h1v-1h1v-1h1v-1h1v-1h1v-1h1v-1h1v-1h1v-2h1v-1h1v-1h1v-1h1v-1h1v-1h1v-2h1v-1h1v-1h1v-2h1v-1h1v-1h1v-2h1v-1h1v-1h1v-2h1v-1h1v-2h1v-1h1v-2h1v-1h1v-2h1v-2h1v-1h1v-2h1v-1h1v-2h1v-2h1v-2h1v-1h1v-2h1v-2h1v-2h1v-2h1v-2h1v-2h1v-2h1v-2h1v-3h1v-2h1v-3h1v-2h1v-3h1v-2h1v-3h1v-2h1v-3h1v-4h1v-3h1v-3h1v-4h1v-3h1v-4h1v-4h1v-5h1v-5h1v-4h1v-7h1v-7h1v-8h1v-17h1v-22h-1v-17h-1v-8h-1v-7h-1v-7h-1v-4h-1v-5h-1v-5h-1v-4h-1v-4h-1v-3h-1v-4h-1v-3h-1v-3h-1v-4h-1v-3h-1v-2h-1v-3h-1v-2h-1v-3h-1v-2h-1v-3h-1v-2h-1v-3h-1v-2h-1v-2h-1v-2h-1v-2h-1v-2h-1v-2h-1v-2h-1v-2h-1v-2h-1v-1h-1v-2h-1v-2h-1v-1h-1v-2h-1v-2h-1v-1h-1v-2h-1v-1h-1v-2h-1v-2h-1v-1h-1v-1h-1v-2h-1v-1h-1v-1h-1v-2h-1v-1h-1v-1h-1v-2h-1v-1h-1v-1h-1v-2h-1v-1h-1v-1h-1v-1h-1v-1h-1v-2h-1v-1h-1v-1h-1v-1h-1v-1h-1v-1h-1v-1h-1v-1h-1v-1h-1v-1h-1v-1h-1v-1h-1v-1h-1v-1h-1v-1h-1v-1h-1v-1h-1v-1h-1v-1h-1v-1h-1v-1h-2v-1h-1v-1h-1v-1h-1v-1h-1v-1h-1v-1h-2v-1h-1v-1h-2v-1h-1v-1h-1v-1h-2v-1h-1v-1h-1v-1h-2v-1h-1v-1h-2v-1h-1v-1h-2v-1h-2v-1h-2v-1h-1v-1h-2v-1h-2v-1h-1v-1h-2v-1h-2v-1h-3v-1h-2v-1h-2v-1h-2v-1h-3v-1h-2v-1h-2v-1h-3v-1h-4v-1h-3v-1h-3v-1h-3v-1h-4v-1h-5v-1h-6v-1h-5v-1h-12v-1zm2 8v-1h17v1h12v1h5v1h6v1h5v1h4v1h3v1h3v1h3v1h3v1h3v1h2v1h3v1h2v1h2v1h2v1h3v1h2v1h2v1h2v1h1v1h2v1h2v1h1v1h2v1h2v1h1v1h2v1h1v1h2v1h1v1h2v1h1v1h1v1h2v1h1v1h1v1h2v1h1v1h1v1h1v1h1v1h1v1h2v1h1v1h1v1h1v1h1v1h1v1h1v1h1v1h1v1h1v1h1v1h1v1h1v1h1v1h1v1h1v1h1v1h1v2h1v1h1v1h1v1h1v1h1v1h1v1h1v2h1v1h1v1h1v2h1v1h1v1h1v2h1v1h1v2h1v1h1v1h1v2h1v2h1v1h1v2h1v1h1v2h1v2h1v1h1v2h1v2h1v1h1v2h1v2h1v2h1v2h1v2h1v2h1v2h1v2h1v2h1v3h1v2h1v3h1v3h1v2h1v3h1v2h1v3h1v3h1v3h1v4h1v3h1v3h1v4h1v4h1v5h1v5h1v5h1v5h1v8h1v8h1v16h1v22h-1v16h-1v8h-1v8h-1v5h-1v5h-1v5h-1v5h-1v4h-1v4h-1v3h-1v3h-1v3h-1v4h-1v3h-1v3h-1v2h-1v3h-1v2h-1v3h-1v2h-1v3h-1v2h-1v3h-1v2h-1v2h-1v2h-1v2h-1v2h-1v2h-1v2h-1v2h-1v1h-1v2h-1v2h-1v1h-1v2h-1v2h-1v1h-1v2h-1v1h-1v2h-1v2h-1v1h-1v1h-1v2h-1v1h-1v1h-1v2h-1v1h-1v1h-1v2h-1v1h-1v1h-1v2h-1v1h-1v1h-1v1h-1v1h-1v1h-1v2h-1v1h-1v1h-1v1h-1v1h-1v1h-1v1h-1v1h-1v1h-1v1h-1v1h-1v1h-1v1h-1v1h-1v1h-1v1h-1v1h-2v1h-1v1h-1v1h-1v1h-1v1h-1v1h-1v1h-2v1h-1v1h-2v1h-1v1h-1v1h-2v1h-1v1h-1v1h-2v1h-1v1h-2v1h-1v1h-2v1h-2v1h-2v1h-1v1h-2v1h-2v1h-1v1h-2v1h-3v1h-2v1h-2v1h-2v1h-2v1h-3v1h-2v1h-3v1h-3v1h-3v1h-4v1h-3v1h-3v1h-6v1h-5v1h-5v1h-14v1h-13v-1h-14v-1h-5v-1h-5v-1h-6v-1h-3v-1h-3v-1h-4v-1h-3v-1h-3v-1h-3v-1h-2v-1h-2v-1h-3v-1h-2v-1h-2v-1h-2v-1h-3v-1h-2v-1h-1v-1h-2v-1h-2v-1h-1v-1h-2v-1h-2v-1h-2v-1h-1v-1h-2v-1h-1v-1h-2v-1h-1v-1h-1v-1h-2v-1h-1v-1h-1v-1h-2v-1h-1v-1h-1v-1h-2v-1h-1v-1h-1v-1h-1v-1h-1v-1h-1v-1h-2v-1h-1v-1h-1v-1h-1v-1h-1v-1h-1v-1h-1v-1h-1v-1h-1v-1h-1v-1h-1v-1h-1v-1h-1v-1h-1v-1h-1v-1h-1v-2h-1v-1h-1v-1h-1v-1h-1v-1h-1v-1h-1v-1h-1v-2h-1v-1h-1v-1h-1v-2h-1v-1h-1v-1h-1v-2h-1v-1h-1v-1h-1v-2h-1v-1h-1v-1h-1v-2h-1v-2h-1v-1h-1v-2h-1v-2h-1v-1h-1v-2h-1v-1h-1v-2h-1v-2h-1v-2h-1v-2h-1v-2h-1v-2h-1v-2h-1v-2h-1v-2h-1v-2h-1v-2h-1v-2h-1v-2h-1v-3h-1v-2h-1v-3h-1v-2h-1v-3h-1v-2h-1v-3h-1v-3h-1v-4h-1v-3h-1v-3h-1v-4h-1v-3h-1v-5h-1v-4h-1v-5h-1v-5h-1v-6h-1v-8h-1v-8h-1v-17h-1v-18h1v-17h1v-8h1v-8h1v-6h1v-5h1v-5h1v-4h1v-5h1v-3h1v-4h1v-3h1v-3h1v-4h1v-3h1v-3h1v-2h1v-3h1v-2h1v-3h1v-2h1v-3h1v-2h1v-3h1v-2h1v-2h1v-2h1v-2h1v-2h1v-2h1v-2h1v-2h1v-1h1v-2h1v-2h1v-1h1v-2h1v-2h1v-1h1v-2h1v-1h1v-2h1v-2h1v-1h1v-1h1v-2h1v-1h1v-1h1v-2h1v-1h1v-1h1v-2h1v-1h1v-1h1v-2h1v-1h1v-1h1v-1h1v-1h1v-1h1v-2h1v-1h1v-1h1v-1h1v-1h1v-1h1v-1h1v-1h1v-1h1v-1h1v-1h1v-1h1v-1h1v-1h1v-1h1v-1h1v-1h1v-1h2v-1h1v-1h1v-1h1v-1h1v-1h1v-1h2v-1h1v-1h1v-1h2v-1h1v-1h2v-1h1v-1h1v-1h2v-1h1v-1h2v-1h1v-1h2v-1h2v-1h1v-1h2v-1h2v-1h2v-1h1v-1h2v-1h2v-1h3v-1h2v-1h2v-1h2v-1h3v-1h2v-1h3v-1h3v-1h3v-1h3v-1h3v-1h4v-1h5v-1h6v-1h5v-1" fill="url(#x)"/></g></g><g clip-path="url(#y)"><path d="M232.531 233.715c-101.133 0-183.41 100.137-183.41 223.25 0 123.078 82.277 223.207 183.41 223.207s183.403-100.129 183.403-223.207c0-123.113-82.274-223.25-183.403-223.25m0 455.504c-106.211 0-192.597-104.18-192.597-232.254 0-128.082 86.386-232.281 192.597-232.281s192.606 104.199 192.606 232.281c0 128.074-86.391 232.254-192.606 232.254" fill="#181613"/><g fill="#fff"><path d="M131.617 415.668l-3.957 5.273V342.82c15.735 10.828 32.531 24.836 49.586 41.469-30.687 12.039-45.422 31.125-45.629 31.379m124.93 65.258l-7.895.519h-.164c-.383-.035-38.472-2.465-54.519 12.496-4.653 4.356-6.926 9.622-6.926 16.09 0 7.547 2.387 13.699 7.105 18.285 5.219 5.055 16.207 10.981 38.993 10.34l1.195-.027c19.379 0 36.73-3.793 51.035-8.652 7.68 14.961 14.051 29.355 19.043 42.851-15.906 4.277-51.5 13.086-74.476 13.086-36.907 0-106.68-17.687-106.68-84.672 0-17.488 5.672-32.015 16.851-43.121 23.059-22.894 63.153-25.137 79.309-25.039l2.059.023c4.328 5.356 8.644 10.809 12.898 16.45 7.914 10.476 15.309 20.961 22.172 31.371m43.555-84.399c-20.055-27.738-42.028-51.73-64.192-71.101 37.145 1.176 107.281 12.937 107.281 84.508 0 15.304-4.507 27.3-11.562 36.734-8.988-16.648-19.52-33.508-31.527-50.141"/></g></g><g clip-path="url(#z)"><g clip-path="url(#AA)"><path d="M329 506v1h-1v1h-1v1h-2v1h-1v1h-2v1h-1v1h-2v1h-2v1h-1v1h-2v1h-2v1h-2v1h-2v1h-2v1h-2v1h-2v1h-2v1h-2v1h-3v1h-2v1h-3v1h-2v1h-3v3h1v2h1v2h1v2h1v2h1v2h1v2h1v2h1v2h1v3h1v2h1v2h1v3h1v2h1v2h1v3h1v2h1v3h1v2h1v1h4v-1h5v1h1v1h1v1h1v1h1v1h1v1h1v1h1v1h1v1h1v1h1v1h1v1h2v1h1v1h1v1h1v1h2v-82" fill="url(#AB)"/></g></g><g clip-path="url(#AC)"><g clip-path="url(#AD)"><path d="M127 325v19h2v1h1v1h1v1h2v1h1v1h1v1h2v1h1v1h1v1h1v1h2v1h1v1h1v1h2v1h1v1h1v1h2v1h1v1h1v1h1v1h1v1h1v1h2v1h1v1h1v1h1v1h1v1h1v1h1v1h1v1h1v1h1v1h2v1h1v1h1v1h1v1h1v1h1v1h1v1h1v1h1v1h3v-1h2v-1h3v-1h3v-1h4v-1h4v-1h4v-1h5v-1h6v-1h12v-1h15v1h9v1h6v1h4v1h2v1h3v1h2v1h2v1h2v1h1v1h1v1h2v1h1v2h1v1h1v2h1v2h1v2h1v7h1v3h-1v5h-1v2h-1v2h-1v2h-1v1h-1v1h-1v1h-1v1h-1v1h-1v1h-2v1h-1v1h-2v1h-2v1h-2v1h-3v1h-3v1h-5v1h-6v1h-14v1h-7v1h1v2h1v1h1v1h1v1h1v2h1v1h1v1h1v1h1v2h1v1h1v1h1v2h1v1h1v1h1v2h1v1h1v2h1v1h1v1h1v2h1v1h1v2h1v1h1v1h1v2h1v1h1v2h1v1h1v2h1v1h1v1h1v2h1v1h1v2h10v-1h6v-1h5v-1h4v-1h4v-1h3v-1h3v-1h4v-1h2v-1h2v-1h3v-1h2v-1h2v-1h2v-1h2v-1h2v-1h1v-1h2v-1h2v-1h1v-1h1v-1h2v-1h1v-1h1v-1h1v-1h2v-2h1v-1h1v-1h1v-1h1v-1h1v-1h1v-1h1v-3h-1v-2h-1v-1h-1v-2h-1v-2h-1v-1h-1v-2h-1v-2h-1v-2h-1v-1h-1v-2h-1v-2h-1v-1h-1v-2h-1v-2h-1v-1h-1v-2h-1v-1h-1v-2h-1v-1h-1v-2h-1v-1h-1v-2h-1v-1h-1v-2h-1v-1h-1v-2h-1v-1h-1v-2h-1v-1h-1v-2h-1v-1h-1v-1h-1v-2h-1v-1h-1v-1h-1v-2h-1v-1h-1v-1h-1v-2h-1v-1h-1v-1h-1v-1h-1v-2h-1v-1h-1v-1h-1v-2h-1v-1h-1v-1h-1v-1h-1v-1h-1v-2h-1v-1h-1v-1h-1v-1h-1v-1h-1v-1h-1v-2h-1v-1h-1v-1h-1v-1h-1v-1h-1v-1h-1v-1h-1v-2h-1v-1h-1v-1h-1v-1h-1v-1h-1v-1h-1v-1h-1v-1h-1v-1h-1v-1h-1v-1h-1v-1h-1v-1h-1v-1h-1v-1h-1v-1h-1v-1h-1v-1h-1v-1h-1v-1h-1v-1h-1v-1h-1v-1h-1v-1h-2v-1h-1v-1h-1v-1h-1v-1h-1v-1h-1v-1h-1v-1h-27v1h-8v1h-8v1h-5v1h-5v1h-4v1h-4v1h-3v1h-3v1h-3v1h-3v1h-2v1h-2v1h-2v1h-2v1h-2v1h-2v1h-2v1h-2v-1h-2v-1h-1v-1h-1v-1h-1v-1h-1v-1h-1v-1h-1v-1h-2v-1h-1v-1h-1v-1h-1v-1h-1v-1h-1v-1h-1v-1h-1v-1h-2v-1h-1v-1" fill="url(#AE)"/></g></g></g></svg>